<?xml version="1.0" encoding="utf-8"?>
<!-- Generator: Adobe Illustrator 27.9.0, SVG Export Plug-In . SVG Version: 6.00 Build 0)  -->
<svg version="1.1" id="Layer_1" xmlns="http://www.w3.org/2000/svg" xmlns:xlink="http://www.w3.org/1999/xlink" x="0px" y="0px"
	 viewBox="0 0 512 512" style="enable-background:new 0 0 512 512;" xml:space="preserve">
<g id="rEL6aV.tif">
	<g>
		<path d="M237.9,173.9c-0.7-6.9-1.1-13.8-2.1-20.7c-0.9-6-1.3-11.9,0.9-17.7c1.6-4.3,1.4-8.8,0.1-13.1c-1.6-5.6-2.1-11.1-1-16.8
			c1.6-8.5-2.5-13.3-10.6-14.9c-6.2-1.2-12.6-1.7-18.6-3.5c-7.3-2.2-13.9-6.9-13.2-15.1c0.9-9.5,9.2-11.5,17.2-10.9
			c20.2,1.4,40.5,1.6,60.6,2.7c9.4,0.5,19,4.9,27.6,9.2c6,2.9,8.3,9.9,5.8,16.5c-3,7.9-9.7,11.6-18.2,10.6c-6-0.7-11.8-2.4-17.7-3.1
			c-4.4-0.6-8.1,1.5-7.1,6.4c1.5,7.2-1.4,13.7-1.8,20.6c-0.1,1.9-0.9,3.9-0.6,5.6c4.4,22,0,44.5,3.9,66.5c1.1,6.4,5.3,8.1,10.8,8.6
			c5.1,0.5,10.1,1,13.3,5.9c8.7,13.4,4.9,21.4-11,22.8c-7.4,0.6-12.9,6.5-10.8,14.3c5.2,19.4-0.7,39.4,3.6,58.3
			c4.9,21.7,2.2,43.8,6.4,65.4c1.2,6.1,0.8,12.6,0.9,18.9c0,3.7-1.4,6.9-5.5,7.9c-3.7,0.9-7.3-0.1-9.3-3.3
			c-5.6-9.3-10.6-19.6-9.6-30.2c1.3-13.1-5.7-24.4-4.9-37c0.1-1.9-1.5-3.8-3.7-3.3c-2.6,0.6-2.8,3.2-3.2,5.3
			c-3.6,21.4-12.5,41.5-15.5,63.2c-2.7,19.4-3.3,19.3,16.6,20.9c19.6,1.6,39,4.5,58.5,6.6c6.6,0.7,13.3,0.4,19.9,1.4
			c10.7,1.8,16.2,7.6,15.2,14.9c-1.2,8.8-10.6,15.3-20.6,14.3c-25.4-2.5-50.8-4.6-76.2-7.7c-19.6-2.4-39-2.2-58.6-0.4
			c-6.4,0.6-13,0.1-14.9-7c-1.9-7.1,3.3-10.8,9.5-13.1c2.4-0.9,4.6-2.2,7-2.9c15.8-4.4,15.7-4.4,17.1-20.2
			c1.4-15.5,5.9-30.3,9.3-45.4c7.5-32.9,19.6-64.5,26.6-97.5c1.6-7.6,6.5-14.1,4.8-22.8c-1-5.4-1.7-7-7.7-7.5
			c-10.9-0.9-22.2,1.2-32.9-3.2c-7.2-3-11.6-7.2-9.1-15.1c2.3-7.4,8.2-11.8,16-10.3c8.6,1.7,17-1.5,25.6,0c5.4,0.9,6.9-3.2,6.8-7.9
			C237.8,184.6,237.9,179.2,237.9,173.9z"/>
	</g>
</g>
</svg>
