<?xml version="1.0" encoding="utf-8"?>
<!-- Generator: Adobe Illustrator 27.9.0, SVG Export Plug-In . SVG Version: 6.00 Build 0)  -->
<svg version="1.1" id="Layer_1" xmlns="http://www.w3.org/2000/svg" xmlns:xlink="http://www.w3.org/1999/xlink" x="0px" y="0px"
	 viewBox="0 0 512 512" style="enable-background:new 0 0 512 512;" xml:space="preserve">
<style type="text/css">
	.st0{fill:#231815;}
</style>
<g>
	<path class="st0" d="M485.6,393.5c-5.3,13.2-20.4,19.6-33.6,14.3l-96.7-39c2.1-5.3,63-147.4,83.6-195.3
		c4.1-9.5,13.4-15.6,23.7-15.6h5.9v-7h-72.2v7h21.5c9.3,0,15.6,9.6,11.8,18.1l-55.3,125.8l-63-150.9l45.3-122.2
		c3.8-10.1,13.4-16.8,24.2-16.8h6.5v-7h-67.2v7h16.4c9,0,15.2,8.9,12.1,17.4l-41.4,112.2L262.8,29.5c-3.4-8.5,2.9-17.7,12-17.7h14.4
		v-7H164.7v7h8.3c10.3,0,19.7,6.2,23.7,15.7l0,0c2.1,5,2.2,10.5,0.4,15.6l-36.4,98.3L116.3,29.5c-3.4-8.5,2.9-17.7,12-17.7h13.4v-7
		H15.2v7H27c10.6,0,20.1,6.5,24,16.4l80.2,203.9h3.5l57.5-154.8C196.4,66.2,212,66,216.4,77l116.4,282.6l-120.1-48.5
		c-8-3.2-15.6-6.5-22.7-9.7c-7.1-3.2-13.1-6.7-18.1-10.5c-4.9-3.8-8.3-8.2-10-13.2c-1.7-5-1.3-10.7,1.3-17.2
		c2.1-5.2,5.3-9.3,9.5-12.3c4.2-3,9.1-3.3,14.7-1.1c0.9,0.4,2.4,1.2,4.4,2.3c2,1.2,4.3,2.5,6.7,4c2.4,1.5,4.7,3,6.8,4.4
		c2.1,1.4,3.6,2.3,4.6,2.7c15.7,6.3,26.8,1.3,33.4-15c2.9-7.1,2.9-14.2,0.1-21.5c-2.8-7.2-7.8-12.3-14.8-15.1
		c-8-3.2-15.6-4.3-22.6-3.2c-7.1,1.1-13.5,3.7-19.3,7.8c-5.8,4.1-10.9,9.2-15.3,15.3c-4.4,6.1-8.1,12.7-10.9,19.8
		c-6.2,15.4-9.4,29.2-9.7,41.2c-0.2,12.1,1.8,22.9,6,32.5c4.2,9.6,10.1,18,17.7,25.4c7.6,7.3,16.1,13.9,25.6,19.7
		c9.5,5.8,19.5,11,30.2,15.7c10.7,4.6,95.5,39,95.5,39l-5.1,12.8c-2.3,6-5.1,12.6-8.2,19.9c-3.2,7.3-6.8,14.2-11,20.7
		c-4.2,6.5-8.8,11.9-13.9,16.2c-5.1,4.3-10.7,6.5-16.7,6.5c-2.7,0-5-0.9-7-2.7c-2-1.8-3-4.6-3-8.2c0-5,1.1-9.3,3.2-12.9
		c2.1-3.6,3.2-8.4,3.2-14.4c0-7-2.8-12.2-8.4-15.7c-5.7-3.5-11.6-5.2-17.9-5.2c-8.6,0-16,2.2-22.2,6.5c-6.1,4.3-9.2,11.3-9.2,20.9
		c0,12.6,4.7,22.5,14.2,29.6c9.5,7.1,21.7,10.7,36.6,10.7c13.9,0,25.1-3.5,33.4-10.5c8.3-7,15.8-17.9,22.4-32.9
		c5.3-11.4,10.8-24.2,16.6-38.4l96.5,38.9c13.2,5.3,19.6,20.4,14.3,33.6l-2.6,6.6l6.5,2.6l49.4-122.5l-6.5-2.6L485.6,393.5z"/>
</g>
</svg>
