<svg width="360" height="360" viewBox="0 0 360 360" fill="none" xmlns="http://www.w3.org/2000/svg">
<style>
svg { overflow: visible; }
@keyframes kf_Rectangle_30_transform_0 {
  0% {
    transform: translateX(99px) translateY(115px) translateX(0px) translateY(0px);
  }
  83.33% {
    transform: translateX(99px) translateY(115px) translateX(0px) translateY(21.16px);
  }
  100% {
    transform: translateX(99px) translateY(115px) translateX(0px) translateY(20.022px);
  }
}
#Rectangle_30 {
  transform-origin: 0 0;
  animation: kf_Rectangle_30_transform_0 0.6s linear infinite;
}
@keyframes kf_Group_14_transform_0 {
  0% {
    transform: translateX(99px) translateY(226px) translateX(0px) translateY(0px);
  }
  83.33% {
    transform: translateX(99px) translateY(226px) translateX(0px) translateY(21.16px);
  }
  100% {
    transform: translateX(99px) translateY(226px) translateX(0px) translateY(20.022px);
  }
}
#Group_14 {
  transform-origin: 0 0;
  animation: kf_Group_14_transform_0 0.6s linear infinite;
}
</style>
<g id="Frame_9">
<path id="Rectangle_30" transform="translate(99 115)" d="M0 20C0 8.9543 8.95431 0 20 0H190V111H95V134H0L0 20Z" fill="white" stroke="black" stroke-width="4"/>
<path id="Rectangle_29" transform="translate(76 68)" d="M0 20C0 8.9543 8.95431 0 20 0H190V111H95V134H0L0 20Z" fill="white" stroke="black" stroke-width="4"/>
<path id="Books___Editorial" transform="translate(113 81)" d="M13.968 21.724C14.016 21.82 14.1 21.94 14.22 22.084C14.604 22.564 14.964 23.044 15.3 23.524C15.66 23.98 15.96 24.472 16.2 25C16.464 25.504 16.644 26.068 16.74 26.692C16.836 27.316 16.812 28.012 16.668 28.78C16.476 29.908 16.104 30.832 15.552 31.552C15.024 32.248 14.376 32.788 13.608 33.172C12.84 33.556 11.988 33.82 11.052 33.964C10.116 34.084 9.144 34.144 8.136 34.144C7.152 34.168 6.156 34.144 5.148 34.072C4.164 34 3.24 33.952 2.376 33.928C2.232 33.928 2.088 33.928 1.944 33.928C1.824 33.928 1.704 33.904 1.584 33.856C1.44 29.704 1.404 25.588 1.476 21.508C1.548 17.404 1.548 13.264 1.476 9.088L1.512 9.052C2.472 8.788 3.492 8.584 4.572 8.44C5.652 8.296 6.72 8.248 7.776 8.296C8.832 8.344 9.84 8.5 10.8 8.764C11.784 9.028 12.648 9.46 13.392 10.06C14.136 10.636 14.724 11.392 15.156 12.328C15.588 13.24 15.804 14.368 15.804 15.712C15.804 16.72 15.624 17.704 15.264 18.664C14.928 19.624 14.52 20.512 14.04 21.328C13.944 21.496 13.92 21.628 13.968 21.724ZM9.972 28.708C10.308 28.564 10.596 28.348 10.836 28.06C11.1 27.7 11.22 27.268 11.196 26.764C11.196 26.26 11.112 25.804 10.944 25.396C10.8 25.108 10.584 24.856 10.296 24.64C10.008 24.4 9.708 24.244 9.396 24.172C8.94 24.052 8.472 23.992 7.992 23.992C7.512 23.968 7.044 23.932 6.588 23.884C6.492 24.244 6.408 24.652 6.336 25.108C6.264 25.564 6.216 26.032 6.192 26.512C6.192 26.968 6.228 27.412 6.3 27.844C6.372 28.276 6.504 28.636 6.696 28.924L6.768 28.96C7.104 28.96 7.452 28.972 7.812 28.996C8.196 28.996 8.568 28.984 8.928 28.96C9.312 28.912 9.66 28.828 9.972 28.708ZM10.008 18.628C10.344 18.436 10.608 18.16 10.8 17.8C10.968 17.512 11.112 17.176 11.232 16.792C11.352 16.408 11.316 16.024 11.124 15.64C10.932 15.256 10.68 14.968 10.368 14.776C10.08 14.56 9.744 14.404 9.36 14.308C8.88 14.212 8.364 14.164 7.812 14.164C7.284 14.14 6.84 14.224 6.48 14.416C6.528 14.968 6.504 15.64 6.408 16.432C6.336 17.224 6.408 18.04 6.624 18.88C6.984 18.928 7.368 18.964 7.776 18.988C8.184 19.012 8.58 19 8.964 18.952C9.348 18.904 9.696 18.796 10.008 18.628ZM18.4523 18.664C18.5963 18.208 18.7043 17.848 18.7763 17.584C18.9443 17.224 19.2083 16.912 19.5683 16.648C19.9523 16.384 20.3843 16.168 20.8643 16C21.3683 15.808 21.8963 15.676 22.4482 15.604C23.0243 15.532 23.6003 15.496 24.1763 15.496C24.6563 15.544 25.1123 15.556 25.5443 15.532C26.0003 15.484 26.4803 15.484 26.9843 15.532C27.7523 15.58 28.4843 15.736 29.1803 16C29.8763 16.24 30.4763 16.6 30.9803 17.08C31.3163 17.296 31.5803 17.644 31.7723 18.124C31.9643 18.604 32.1083 19.168 32.2043 19.816C32.3003 20.44 32.3603 21.136 32.3843 21.904C32.4083 22.648 32.4323 23.416 32.4563 24.208C32.4323 24.904 32.3963 25.696 32.3483 26.584C32.3243 27.472 32.2643 28.324 32.1683 29.14C32.0963 29.956 31.9883 30.688 31.8443 31.336C31.7243 31.984 31.5443 32.428 31.3043 32.668C30.8963 33.244 30.3563 33.652 29.6843 33.892C29.0363 34.132 28.3283 34.276 27.5603 34.324C26.7923 34.396 26.0003 34.396 25.1843 34.324C24.3683 34.276 23.6243 34.252 22.9523 34.252C21.7283 34.036 20.6963 33.508 19.8563 32.668C19.2083 32.092 18.7643 31.372 18.5243 30.508C18.2843 29.644 18.1403 28.744 18.0923 27.808C18.0443 26.848 18.0323 25.888 18.0563 24.928C18.1043 23.968 18.0923 23.092 18.0203 22.3C18.0203 21.868 18.0323 21.448 18.0563 21.04C18.0803 20.608 18.1283 20.164 18.2003 19.708C18.2243 19.444 18.3083 19.096 18.4523 18.664ZM24.5003 21.04C23.9963 21.184 23.5883 21.448 23.2763 21.832C23.1323 21.928 23.0243 22.168 22.9523 22.552C22.8563 23.32 22.8083 24.088 22.8083 24.856C22.8083 25.6 22.7843 26.392 22.7363 27.232C22.7123 27.784 22.8563 28.216 23.1683 28.528C23.4803 28.816 23.8523 29.02 24.2843 29.14C24.7403 29.236 25.2083 29.26 25.6883 29.212C26.1683 29.14 26.5643 29.02 26.8763 28.852C27.2843 28.66 27.5603 28.264 27.7043 27.664C27.8003 26.896 27.8723 26.128 27.9203 25.36C27.9923 24.568 27.9563 23.824 27.8123 23.128C27.6923 22.288 27.3443 21.676 26.7683 21.292C26.1923 20.908 25.4363 20.824 24.5003 21.04ZM34.589 18.664C34.733 18.208 34.841 17.848 34.913 17.584C35.081 17.224 35.345 16.912 35.705 16.648C36.089 16.384 36.521 16.168 37.001 16C37.505 15.808 38.033 15.676 38.585 15.604C39.161 15.532 39.737 15.496 40.313 15.496C40.793 15.544 41.249 15.556 41.681 15.532C42.137 15.484 42.617 15.484 43.121 15.532C43.889 15.58 44.621 15.736 45.317 16C46.013 16.24 46.613 16.6 47.117 17.08C47.453 17.296 47.717 17.644 47.909 18.124C48.101 18.604 48.245 19.168 48.341 19.816C48.437 20.44 48.497 21.136 48.521 21.904C48.545 22.648 48.569 23.416 48.593 24.208C48.569 24.904 48.533 25.696 48.485 26.584C48.461 27.472 48.401 28.324 48.305 29.14C48.233 29.956 48.125 30.688 47.981 31.336C47.861 31.984 47.681 32.428 47.441 32.668C47.033 33.244 46.493 33.652 45.821 33.892C45.173 34.132 44.465 34.276 43.697 34.324C42.929 34.396 42.137 34.396 41.321 34.324C40.505 34.276 39.761 34.252 39.089 34.252C37.865 34.036 36.833 33.508 35.993 32.668C35.345 32.092 34.901 31.372 34.661 30.508C34.421 29.644 34.277 28.744 34.229 27.808C34.181 26.848 34.169 25.888 34.193 24.928C34.241 23.968 34.229 23.092 34.157 22.3C34.157 21.868 34.169 21.448 34.193 21.04C34.217 20.608 34.265 20.164 34.337 19.708C34.361 19.444 34.445 19.096 34.589 18.664ZM40.637 21.04C40.133 21.184 39.725 21.448 39.413 21.832C39.269 21.928 39.161 22.168 39.089 22.552C38.993 23.32 38.945 24.088 38.945 24.856C38.945 25.6 38.921 26.392 38.873 27.232C38.849 27.784 38.993 28.216 39.305 28.528C39.617 28.816 39.989 29.02 40.421 29.14C40.877 29.236 41.345 29.26 41.825 29.212C42.305 29.14 42.701 29.02 43.013 28.852C43.421 28.66 43.697 28.264 43.841 27.664C43.937 26.896 44.009 26.128 44.057 25.36C44.129 24.568 44.093 23.824 43.949 23.128C43.829 22.288 43.481 21.676 42.905 21.292C42.329 20.908 41.573 20.824 40.637 21.04ZM54.6137 7.792C55.0217 7.792 55.3817 7.816 55.6937 7.864V15.748C55.6937 16.54 55.6697 17.38 55.6217 18.268C55.5977 19.156 55.6217 19.876 55.6937 20.428C56.1017 20.068 56.4497 19.672 56.7377 19.24C57.0497 18.808 57.3377 18.376 57.6017 17.944C57.8657 17.488 58.1297 17.032 58.3937 16.576C58.6817 16.12 59.0057 15.688 59.3657 15.28C59.6777 15.4 60.0857 15.472 60.5897 15.496C61.0937 15.496 61.6097 15.496 62.1377 15.496C62.6897 15.472 63.2297 15.448 63.7577 15.424C64.2857 15.376 64.7177 15.364 65.0537 15.388C64.1657 16.756 63.2057 18.112 62.1737 19.456C61.1417 20.776 60.1217 22.108 59.1137 23.452C60.1937 25.204 61.2737 26.944 62.3537 28.672C63.4577 30.376 64.4657 32.152 65.3777 34C65.0417 34 64.6097 34.012 64.0817 34.036C63.5777 34.084 63.0497 34.12 62.4977 34.144C61.9457 34.168 61.4057 34.168 60.8777 34.144C60.3737 34.12 59.9417 34.072 59.5817 34C59.2217 33.424 58.8857 32.836 58.5737 32.236C58.2857 31.636 57.9977 31.048 57.7097 30.472C57.4217 29.872 57.1097 29.284 56.7737 28.708C56.4617 28.132 56.1017 27.58 55.6937 27.052C55.6937 27.484 55.7057 27.988 55.7297 28.564C55.7537 29.14 55.7657 29.74 55.7657 30.364C55.7657 30.988 55.7537 31.624 55.7297 32.272C55.7057 32.896 55.6457 33.472 55.5497 34C55.2857 33.976 54.9497 33.976 54.5417 34C54.1577 34 53.7497 34.012 53.3177 34.036C52.8857 34.06 52.4417 34.072 51.9857 34.072C51.5537 34.072 51.1577 34.048 50.7977 34C50.6297 29.536 50.5937 25.156 50.6897 20.86C50.7857 16.564 50.8217 12.232 50.7977 7.864C51.1577 7.864 51.5537 7.864 51.9857 7.864C52.4417 7.84 52.8857 7.828 53.3177 7.828C53.7737 7.804 54.2057 7.792 54.6137 7.792ZM79.5229 18.052C80.0029 19.084 80.2429 20.248 80.2429 21.544C79.4749 21.664 78.6229 21.736 77.6869 21.76C76.7749 21.784 75.9109 21.712 75.0949 21.544C75.1669 21.256 75.1309 20.968 74.9869 20.68C74.8669 20.392 74.6749 20.14 74.4109 19.924C74.1709 19.708 73.8829 19.552 73.5469 19.456C73.2349 19.336 72.9229 19.288 72.6109 19.312C72.0589 19.408 71.6389 19.624 71.3509 19.96C71.0869 20.272 70.9549 20.62 70.9549 21.004C70.9549 21.388 71.0989 21.772 71.3869 22.156C71.6749 22.54 72.0949 22.828 72.6469 23.02C73.9909 23.212 75.2509 23.476 76.4269 23.812C77.6029 24.124 78.4669 24.64 79.0189 25.36C79.5469 26.224 79.8709 27.112 79.9909 28.024C80.1109 28.912 79.9429 30.016 79.4869 31.336C78.9349 32.512 78.0709 33.352 76.8949 33.856C75.7189 34.36 74.4349 34.6 73.0429 34.576C71.8189 34.624 70.7149 34.516 69.7309 34.252C68.7469 33.988 67.8949 33.592 67.1749 33.064C66.4789 32.536 65.9269 31.888 65.5189 31.12C65.1349 30.352 64.9429 29.488 64.9429 28.528V28.42V28.348C65.7349 28.252 66.6349 28.228 67.6429 28.276C68.6509 28.3 69.5269 28.312 70.2709 28.312C70.2949 28.864 70.5469 29.32 71.0269 29.68C71.5309 30.016 72.0589 30.22 72.6109 30.292C73.1629 30.34 73.6669 30.232 74.1229 29.968C74.5789 29.704 74.7949 29.224 74.7709 28.528C74.8429 27.952 74.7109 27.52 74.3749 27.232C74.0389 26.944 73.5949 26.728 73.0429 26.584C72.4909 26.416 71.8669 26.272 71.1709 26.152C70.4749 26.032 69.7909 25.828 69.1189 25.54C67.7749 25.084 66.7909 24.376 66.1669 23.416C65.5669 22.432 65.2789 21.424 65.3029 20.392C65.3509 19.336 65.6869 18.364 66.3109 17.476C66.9589 16.588 67.8709 15.988 69.0469 15.676C69.5029 15.556 70.0549 15.46 70.7029 15.388C71.3749 15.316 72.0829 15.28 72.8269 15.28C73.5709 15.28 74.3149 15.328 75.0589 15.424C75.8029 15.496 76.4869 15.604 77.1109 15.748C78.2389 16.228 79.0429 16.996 79.5229 18.052ZM107.869 32.452V32.776L107.833 32.956C107.761 33.22 107.629 33.424 107.437 33.568C107.245 33.712 107.017 33.82 106.753 33.892C106.513 33.964 106.249 34 105.961 34C105.673 34.024 105.385 34.036 105.097 34.036H104.917C104.485 34.036 104.101 34.024 103.765 34C103.429 33.976 103.117 33.916 102.829 33.82C102.541 33.724 102.253 33.592 101.965 33.424C101.677 33.232 101.353 32.968 100.993 32.632C100.273 33.112 99.4689 33.46 98.5809 33.676C97.6929 33.868 96.7809 33.988 95.8449 34.036C94.6449 34.036 93.5889 33.808 92.6769 33.352C91.7889 32.872 91.0449 32.26 90.4449 31.516C89.8449 30.748 89.3889 29.896 89.0769 28.96C88.7649 28 88.6089 27.04 88.6089 26.08C88.6089 25.432 88.7049 24.796 88.8969 24.172C89.1129 23.548 89.3889 22.948 89.7249 22.372C90.0609 21.772 90.4449 21.208 90.8769 20.68C91.3089 20.152 91.7529 19.672 92.2089 19.24C91.9209 18.856 91.6089 18.424 91.2729 17.944C90.9609 17.464 90.6609 16.96 90.3729 16.432C90.1089 15.904 89.8809 15.364 89.6889 14.812C89.5209 14.236 89.4369 13.672 89.4369 13.12C89.4369 12.352 89.6289 11.644 90.0129 10.996C90.4209 10.324 90.9489 9.748 91.5969 9.268C92.2689 8.764 93.0129 8.38 93.8289 8.116C94.6689 7.828 95.5209 7.684 96.3849 7.684C97.2969 7.684 98.1369 7.84 98.9049 8.152C99.6729 8.44 100.321 8.836 100.849 9.34C101.401 9.844 101.821 10.432 102.109 11.104C102.421 11.752 102.577 12.436 102.577 13.156C102.577 14.044 102.373 14.86 101.965 15.604C101.557 16.324 101.125 17.032 100.669 17.728C100.525 17.944 100.381 18.16 100.237 18.376C100.093 18.568 99.9609 18.772 99.8409 18.988C99.6729 19.252 99.5889 19.408 99.5889 19.456C99.5889 19.528 99.5769 19.648 99.5529 19.816C99.5529 19.96 99.5889 20.188 99.6609 20.5C99.7329 20.788 99.8769 21.148 100.093 21.58C100.309 22.012 100.645 22.528 101.101 23.128C101.221 22.936 101.305 22.72 101.353 22.48C101.425 22.216 101.461 21.952 101.461 21.688C101.509 21.232 101.677 20.848 101.965 20.536C102.253 20.2 102.781 20.032 103.549 20.032H106.105C106.513 20.032 106.837 20.116 107.077 20.284C107.317 20.452 107.437 20.812 107.437 21.364C107.437 22.132 107.329 22.816 107.113 23.416C106.897 23.992 106.657 24.592 106.393 25.216V25.18C106.345 25.3 106.297 25.42 106.249 25.54C106.201 25.636 106.153 25.768 106.105 25.936C106.057 26.008 105.997 26.116 105.925 26.26C105.877 26.38 105.817 26.5 105.745 26.62C105.625 26.884 105.493 27.16 105.349 27.448C105.205 27.736 105.133 27.94 105.133 28.06C105.133 28.204 105.229 28.396 105.421 28.636C105.637 28.852 105.853 29.104 106.069 29.392V29.356C106.405 29.788 106.753 30.256 107.113 30.76C107.497 31.264 107.749 31.828 107.869 32.452ZM96.9249 11.968C96.8289 11.824 96.6489 11.752 96.3849 11.752C95.9049 11.752 95.5209 11.884 95.2329 12.148C94.9689 12.388 94.8369 12.748 94.8369 13.228C94.8369 13.468 94.8729 13.744 94.9449 14.056C95.0169 14.368 95.1009 14.668 95.1969 14.956C95.3169 15.244 95.4369 15.484 95.5569 15.676C95.7009 15.868 95.8329 15.952 95.9529 15.928V15.964C96.3849 15.892 96.6849 15.52 96.8529 14.848C97.0209 14.152 97.1049 13.372 97.1049 12.508C97.1049 12.292 97.0449 12.112 96.9249 11.968ZM96.9609 28.96C97.1289 28.936 97.2729 28.912 97.3929 28.888C97.5369 28.84 97.7169 28.768 97.9329 28.672C98.1729 28.552 98.2929 28.48 98.2929 28.456C98.2929 28.36 98.3169 28.168 98.3649 27.88C98.4129 27.568 98.4489 27.22 98.4729 26.836C98.4969 26.452 98.4729 26.056 98.4009 25.648C98.3529 25.216 98.2209 24.844 98.0049 24.532C97.7889 24.22 97.4769 23.98 97.0689 23.812C96.6609 23.62 96.1209 23.572 95.4489 23.668C95.2329 23.692 95.0289 23.824 94.8369 24.064C94.6449 24.28 94.4769 24.544 94.3329 24.856C94.2129 25.168 94.1289 25.504 94.0809 25.864C94.0329 26.2 94.0329 26.512 94.0809 26.8C94.1049 27.04 94.1529 27.292 94.2249 27.556C94.3209 27.82 94.4529 28.06 94.6209 28.276C94.8129 28.492 95.0529 28.672 95.3409 28.816C95.6289 28.936 95.9889 28.996 96.4209 28.996C96.6129 28.996 96.7929 28.984 96.9609 28.96ZM11.916 72.068C13.452 72.14 15.036 72.152 16.668 72.104V72.176C16.716 72.944 16.728 73.748 16.704 74.588C16.68 75.404 16.572 76.172 16.38 76.892C13.932 76.868 11.436 76.904 8.892 77C6.372 77.072 3.948 77.012 1.62 76.82C1.62 74.732 1.596 72.668 1.548 70.628C1.5 68.564 1.464 66.512 1.44 64.472C1.416 62.432 1.416 60.392 1.44 58.352C1.464 56.312 1.536 54.26 1.656 52.196C2.592 52.148 3.6 52.112 4.68 52.088C5.784 52.04 6.888 52.004 7.992 51.98C9.096 51.956 10.164 51.932 11.196 51.908C12.228 51.884 13.14 51.872 13.932 51.872C14.724 51.872 15.36 51.884 15.84 51.908C16.32 51.932 16.56 51.956 16.56 51.98C16.68 52.82 16.704 53.672 16.632 54.536C16.584 55.4 16.56 56.252 16.56 57.092V57.128C15.792 57.296 15.012 57.404 14.22 57.452C13.452 57.476 12.672 57.488 11.88 57.488C11.088 57.464 10.296 57.452 9.504 57.452C8.712 57.452 7.92 57.488 7.128 57.56H7.02L6.984 57.596C7.008 58.292 6.972 59.012 6.876 59.756C6.804 60.476 6.852 61.16 7.02 61.808L7.056 61.844C7.776 61.892 8.508 61.916 9.252 61.916C9.996 61.916 10.74 61.928 11.484 61.952V61.988C11.604 62.804 11.64 63.62 11.592 64.436C11.544 65.252 11.532 66.104 11.556 66.992C11.196 67.088 10.788 67.148 10.332 67.172C9.876 67.172 9.432 67.172 9 67.172C8.592 67.172 8.22 67.184 7.884 67.208C7.548 67.232 7.32 67.292 7.2 67.388C7.08 68.084 7.032 68.864 7.056 69.728C7.104 70.592 7.152 71.312 7.2 71.888L7.236 71.924C8.82 71.924 10.38 71.972 11.916 72.068ZM27.5653 53.204C27.5893 52.94 27.6133 52.568 27.6373 52.088V51.692C27.6373 51.668 27.7933 51.644 28.1053 51.62C28.4413 51.572 28.8373 51.548 29.2933 51.548C29.7733 51.524 30.2773 51.524 30.8053 51.548C31.3333 51.548 31.7893 51.584 32.1733 51.656V54.032C32.1733 58.04 32.2333 62 32.3533 65.912C32.4733 69.824 32.4853 73.508 32.3893 76.964C31.6453 76.964 30.8293 76.976 29.9413 77C29.0533 77.048 28.2493 77.024 27.5293 76.928C27.5053 76.88 27.4933 76.796 27.4933 76.676C27.4933 76.436 27.4813 76.244 27.4573 76.1C27.4573 75.956 27.4573 75.752 27.4573 75.488C27.4093 75.368 27.3493 75.284 27.2773 75.236C27.2293 75.164 27.1693 75.2 27.0973 75.344C26.7373 76.064 26.2573 76.532 25.6573 76.748C25.0573 76.94 24.4213 76.988 23.7493 76.892C22.3813 76.796 21.3013 76.448 20.5093 75.848C19.7173 75.224 19.1173 74.444 18.7093 73.508C18.3253 72.548 18.0613 71.48 17.9173 70.304C17.7973 69.128 17.7253 67.94 17.7013 66.74C17.7013 65.9 17.7493 65.084 17.8453 64.292C17.9653 63.5 18.1333 62.78 18.3493 62.132C18.5893 61.46 18.8893 60.896 19.2493 60.44C19.6333 59.96 20.0893 59.624 20.6173 59.432C21.2653 59.192 21.9733 59.048 22.7413 59C23.5333 58.928 24.2773 58.928 24.9733 59C25.6693 59.048 26.2573 59.156 26.7373 59.324C27.2173 59.492 27.4813 59.684 27.5293 59.9C27.5053 58.772 27.4933 57.86 27.4933 57.164C27.4933 56.468 27.4933 55.916 27.4933 55.508C27.4933 55.076 27.4933 54.752 27.4933 54.536C27.5173 54.296 27.5293 54.08 27.5293 53.888C27.5533 53.672 27.5653 53.444 27.5653 53.204ZM23.1013 63.752C22.5253 64.184 22.1773 64.82 22.0573 65.66C21.9373 65.996 21.8653 66.344 21.8413 66.704C21.8173 67.064 21.8053 67.412 21.8053 67.748C21.8053 68.348 21.8773 68.936 22.0213 69.512C22.1653 70.064 22.3813 70.568 22.6693 71.024C22.9573 71.456 23.3053 71.804 23.7133 72.068C24.1213 72.332 24.5773 72.464 25.0813 72.464C25.6813 72.464 26.1493 72.332 26.4853 72.068C26.8453 71.804 27.1093 71.444 27.2773 70.988C27.4693 70.532 27.5773 69.992 27.6013 69.368C27.6493 68.72 27.6733 68.012 27.6733 67.244C27.6733 66.308 27.6493 65.576 27.6013 65.048C27.5773 64.496 27.4933 64.076 27.3493 63.788C27.2053 63.5 26.9773 63.32 26.6653 63.248C26.3773 63.152 25.9813 63.104 25.4773 63.104C24.4933 63.104 23.7013 63.32 23.1013 63.752ZM37.3174 58.892C37.8694 58.916 38.5294 58.916 39.2974 58.892H39.9094V59C39.8854 61.904 39.8254 64.868 39.7294 67.892C39.6574 70.916 39.7054 73.88 39.8734 76.784C39.7534 76.928 39.4534 77 38.9734 77C38.4934 77.024 37.9654 77.024 37.3894 77C36.8374 77 36.3094 76.988 35.8054 76.964C35.3014 76.94 34.9654 76.952 34.7974 77C34.9174 75.488 34.9654 73.952 34.9414 72.392C34.9414 70.832 34.9174 69.284 34.8694 67.748C34.8214 66.212 34.7974 64.7 34.7974 63.212C34.7974 61.7 34.8694 60.236 35.0134 58.82V58.784C35.1094 58.76 35.2654 58.76 35.4814 58.784C35.7214 58.808 35.9014 58.82 36.0214 58.82C36.3334 58.844 36.7654 58.868 37.3174 58.892ZM34.9054 53.852C34.8574 53.084 34.8454 52.148 34.8694 51.044L39.7654 51.152C39.7654 51.296 39.7654 51.56 39.7654 51.944C39.7894 52.304 39.8014 52.712 39.8014 53.168C39.8254 53.6 39.8374 54.056 39.8374 54.536C39.8614 54.992 39.8734 55.4 39.8734 55.76C39.7774 55.904 39.5494 56 39.1894 56.048C38.8534 56.096 38.4454 56.12 37.9654 56.12C37.5094 56.096 37.0174 56.072 36.4894 56.048C35.9614 56 35.4694 55.988 35.0134 56.012C35.0134 55.316 34.9774 54.596 34.9054 53.852ZM47.5785 52.412C47.9865 52.436 48.3945 52.424 48.8025 52.376V57.2C48.8025 57.512 48.8025 57.836 48.8025 58.172C48.8265 58.508 48.8385 58.856 48.8385 59.216C49.5825 59.192 50.3625 59.156 51.1785 59.108C52.0185 59.06 53.0505 59 54.2745 58.928C54.4425 59.12 54.5385 59.408 54.5625 59.792C54.5865 60.152 54.5865 60.548 54.5625 60.98C54.5385 61.412 54.5025 61.856 54.4545 62.312C54.4305 62.744 54.4425 63.116 54.4905 63.428H48.9105C48.9105 64.724 48.9105 65.996 48.9105 67.244C48.9105 68.468 48.9225 69.62 48.9465 70.7C49.1865 71.036 49.5345 71.3 49.9905 71.492C50.4465 71.684 50.9385 71.84 51.4665 71.96C51.9945 72.056 52.5225 72.116 53.0505 72.14C53.6025 72.164 54.0825 72.164 54.4905 72.14C54.5385 72.476 54.5865 72.848 54.6345 73.256C54.6825 73.664 54.7185 74.084 54.7425 74.516C54.7665 74.948 54.7545 75.38 54.7065 75.812C54.6825 76.244 54.6105 76.64 54.4905 77C53.5305 77.048 52.5345 77.048 51.5025 77C50.4705 76.928 49.4985 76.784 48.5865 76.568C47.6745 76.352 46.8585 76.028 46.1385 75.596C45.4425 75.164 44.9385 74.576 44.6265 73.832C44.3145 71.984 44.1345 70.244 44.0865 68.612C44.0385 66.956 44.0265 65.252 44.0505 63.5C43.6665 63.524 43.2585 63.536 42.8265 63.536C42.4185 63.536 41.9625 63.536 41.4585 63.536L41.5665 59.144C42.0465 59.168 42.4905 59.18 42.8985 59.18C43.3305 59.18 43.7385 59.18 44.1225 59.18C44.1225 58.652 44.1105 58.088 44.0865 57.488C44.0625 56.864 44.0505 56.24 44.0505 55.616C44.0505 54.992 44.0505 54.392 44.0505 53.816C44.0745 53.24 44.1105 52.724 44.1585 52.268C44.4705 52.22 44.8065 52.208 45.1665 52.232C45.5505 52.256 45.9465 52.292 46.3545 52.34C46.7625 52.364 47.1705 52.388 47.5785 52.412ZM56.2804 61.664C56.4244 61.208 56.5324 60.848 56.6044 60.584C56.7724 60.224 57.0364 59.912 57.3964 59.648C57.7804 59.384 58.2124 59.168 58.6924 59C59.1964 58.808 59.7244 58.676 60.2764 58.604C60.8524 58.532 61.4284 58.496 62.0044 58.496C62.4844 58.544 62.9404 58.556 63.3724 58.532C63.8284 58.484 64.3084 58.484 64.8124 58.532C65.5804 58.58 66.3124 58.736 67.0084 59C67.7044 59.24 68.3044 59.6 68.8084 60.08C69.1444 60.296 69.4084 60.644 69.6004 61.124C69.7924 61.604 69.9364 62.168 70.0324 62.816C70.1284 63.44 70.1884 64.136 70.2124 64.904C70.2364 65.648 70.2604 66.416 70.2844 67.208C70.2604 67.904 70.2244 68.696 70.1764 69.584C70.1524 70.472 70.0924 71.324 69.9964 72.14C69.9244 72.956 69.8164 73.688 69.6724 74.336C69.5524 74.984 69.3724 75.428 69.1324 75.668C68.7244 76.244 68.1844 76.652 67.5124 76.892C66.8644 77.132 66.1564 77.276 65.3884 77.324C64.6204 77.396 63.8284 77.396 63.0124 77.324C62.1964 77.276 61.4524 77.252 60.7804 77.252C59.5564 77.036 58.5244 76.508 57.6844 75.668C57.0364 75.092 56.5924 74.372 56.3524 73.508C56.1124 72.644 55.9684 71.744 55.9204 70.808C55.8724 69.848 55.8604 68.888 55.8844 67.928C55.9324 66.968 55.9204 66.092 55.8484 65.3C55.8484 64.868 55.8604 64.448 55.8844 64.04C55.9084 63.608 55.9564 63.164 56.0284 62.708C56.0524 62.444 56.1364 62.096 56.2804 61.664ZM62.3284 64.04C61.8244 64.184 61.4164 64.448 61.1044 64.832C60.9604 64.928 60.8524 65.168 60.7804 65.552C60.6844 66.32 60.6364 67.088 60.6364 67.856C60.6364 68.6 60.6124 69.392 60.5644 70.232C60.5404 70.784 60.6844 71.216 60.9964 71.528C61.3084 71.816 61.6804 72.02 62.1124 72.14C62.5684 72.236 63.0364 72.26 63.5164 72.212C63.9964 72.14 64.3924 72.02 64.7044 71.852C65.1124 71.66 65.3884 71.264 65.5324 70.664C65.6284 69.896 65.7004 69.128 65.7484 68.36C65.8204 67.568 65.7844 66.824 65.6404 66.128C65.5204 65.288 65.1724 64.676 64.5964 64.292C64.0204 63.908 63.2644 63.824 62.3284 64.04ZM77.3131 59.9C77.3371 59.972 77.3491 60.092 77.3491 60.26C77.4451 60.212 77.6611 60.116 77.9971 59.972C78.3571 59.828 78.7051 59.696 79.0411 59.576C79.4971 59.432 80.0131 59.324 80.5891 59.252C81.1651 59.156 81.7051 59.096 82.2091 59.072C82.7131 59.048 83.1331 59.048 83.4691 59.072C83.8291 59.072 84.0091 59.084 84.0091 59.108C84.0091 59.924 83.9971 60.644 83.9731 61.268C83.9731 61.892 83.9731 62.456 83.9731 62.96C83.9731 63.44 83.9731 63.884 83.9731 64.292C83.9731 64.7 83.9851 65.084 84.0091 65.444L83.6851 65.336C83.5651 65.288 83.4331 65.252 83.2891 65.228C83.1691 65.18 83.0491 65.132 82.9291 65.084C82.6411 65.012 82.3411 64.952 82.0291 64.904C81.7411 64.856 81.5851 64.832 81.5611 64.832C80.9131 64.76 80.3131 64.724 79.7611 64.724C79.2331 64.724 78.7651 64.808 78.3571 64.976C77.9731 65.144 77.6731 65.408 77.4571 65.768C77.2411 66.128 77.1451 66.644 77.1691 67.316C77.1931 68.156 77.2171 68.948 77.2411 69.692C77.2651 70.436 77.2771 71.192 77.2771 71.96C77.2771 72.704 77.2771 73.472 77.2771 74.264C77.3011 75.032 77.3131 75.86 77.3131 76.748V76.892C76.9051 77.012 76.5331 77.084 76.1971 77.108C75.8611 77.132 75.5131 77.132 75.1531 77.108C74.7931 77.108 74.3971 77.096 73.9651 77.072C73.5571 77.048 73.0651 77.06 72.4891 77.108C72.4891 74.156 72.4531 71.204 72.3811 68.252C72.3331 65.3 72.3571 62.24 72.4531 59.072C72.7411 59.096 72.9811 59.12 73.1731 59.144C73.3651 59.144 73.5451 59.144 73.7131 59.144C73.8811 59.144 74.0611 59.144 74.2531 59.144C74.4451 59.12 74.6851 59.096 74.9731 59.072C75.0691 59.072 75.2371 59.06 75.4771 59.036C75.7411 59.012 76.0051 58.988 76.2691 58.964C76.5571 58.94 76.7971 58.94 76.9891 58.964C77.2051 58.964 77.3131 58.988 77.3131 59.036C77.3131 59.228 77.3131 59.372 77.3131 59.468C77.3131 59.564 77.3131 59.648 77.3131 59.72C77.3131 59.768 77.3131 59.828 77.3131 59.9ZM88.083 58.892C88.635 58.916 89.295 58.916 90.063 58.892H90.675V59C90.651 61.904 90.591 64.868 90.495 67.892C90.423 70.916 90.471 73.88 90.639 76.784C90.519 76.928 90.219 77 89.739 77C89.259 77.024 88.731 77.024 88.155 77C87.603 77 87.075 76.988 86.571 76.964C86.067 76.94 85.731 76.952 85.563 77C85.683 75.488 85.731 73.952 85.707 72.392C85.707 70.832 85.683 69.284 85.635 67.748C85.587 66.212 85.563 64.7 85.563 63.212C85.563 61.7 85.635 60.236 85.779 58.82V58.784C85.875 58.76 86.031 58.76 86.247 58.784C86.487 58.808 86.667 58.82 86.787 58.82C87.099 58.844 87.531 58.868 88.083 58.892ZM85.671 53.852C85.623 53.084 85.611 52.148 85.635 51.044L90.531 51.152C90.531 51.296 90.531 51.56 90.531 51.944C90.555 52.304 90.567 52.712 90.567 53.168C90.591 53.6 90.603 54.056 90.603 54.536C90.627 54.992 90.639 55.4 90.639 55.76C90.543 55.904 90.315 56 89.955 56.048C89.619 56.096 89.211 56.12 88.731 56.12C88.275 56.096 87.783 56.072 87.255 56.048C86.727 56 86.235 55.988 85.779 56.012C85.779 55.316 85.743 54.596 85.671 53.852ZM105.58 58.964C106.18 58.988 106.864 59.024 107.632 59.072C107.656 59.216 107.668 59.36 107.668 59.504C107.692 59.648 107.704 59.792 107.704 59.936V60.296C107.632 62.888 107.644 65.444 107.74 67.964C107.836 70.46 107.8 72.992 107.632 75.56C107.632 75.872 107.62 76.184 107.596 76.496C107.596 76.808 107.452 76.988 107.164 77.036H106.732C106.348 77.036 105.952 77.024 105.544 77C105.16 76.952 104.776 76.928 104.392 76.928C104.128 76.928 103.864 76.952 103.6 77C103.36 77.024 103.108 77.036 102.844 77.036C102.676 76.988 102.556 76.892 102.484 76.748C102.436 76.604 102.412 76.436 102.412 76.244C102.412 75.98 102.436 75.764 102.484 75.596C102.532 75.428 102.556 75.224 102.556 74.984C101.98 75.56 101.248 76.052 100.36 76.46C99.4961 76.868 98.6441 77.072 97.8041 77.072C96.8681 77.072 96.0641 76.748 95.3921 76.1C94.7441 75.452 94.2041 74.648 93.7721 73.688C93.3401 72.728 93.0161 71.684 92.8001 70.556C92.6081 69.428 92.5121 68.384 92.5121 67.424C92.5121 66.224 92.6681 65.12 92.9801 64.112C93.2921 63.104 93.7121 62.24 94.2401 61.52C94.7921 60.776 95.4401 60.2 96.1841 59.792C96.9281 59.36 97.7201 59.132 98.5601 59.108C98.9921 59.108 99.3881 59.12 99.7481 59.144C100.132 59.144 100.48 59.204 100.792 59.324C101.104 59.42 101.38 59.588 101.62 59.828C101.86 60.044 102.064 60.356 102.232 60.764C102.208 60.38 102.22 60.056 102.268 59.792C102.34 59.504 102.376 59.216 102.376 58.928C102.376 58.904 102.448 58.892 102.592 58.892C102.76 58.868 102.94 58.868 103.132 58.892C103.324 58.892 103.516 58.892 103.708 58.892C103.9 58.892 104.032 58.892 104.104 58.892C104.512 58.916 105.004 58.94 105.58 58.964ZM98.1641 64.652C97.6121 65.108 97.2761 65.636 97.1561 66.236C97.0601 66.548 97.0001 66.872 96.9761 67.208C96.9521 67.52 96.9401 67.832 96.9401 68.144C96.9401 69.224 97.2161 70.148 97.7681 70.916C98.3441 71.66 99.1361 72.032 100.144 72.032C100.744 72.032 101.188 71.936 101.476 71.744C101.788 71.528 102.004 71.24 102.124 70.88C102.268 70.496 102.34 70.04 102.34 69.512C102.364 68.96 102.376 68.348 102.376 67.676C102.376 66.836 102.364 66.176 102.34 65.696C102.34 65.192 102.28 64.808 102.16 64.544C102.064 64.28 101.884 64.112 101.62 64.04C101.38 63.968 101.008 63.932 100.504 63.932C99.5201 63.932 98.7401 64.172 98.1641 64.652ZM110.029 57.38C110.029 55.196 110.137 53.012 110.353 50.828L115.249 50.936C115.249 51.92 115.237 53.108 115.213 54.5C115.189 55.892 115.165 57.38 115.141 58.964C115.117 60.548 115.093 62.192 115.069 63.896C115.069 65.6 115.069 67.244 115.069 68.828C115.069 70.412 115.081 71.9 115.105 73.292C115.129 74.66 115.165 75.824 115.213 76.784C115.093 76.928 114.793 77 114.313 77C113.833 77.024 113.305 77.024 112.729 77C112.177 77 111.649 76.988 111.145 76.964C110.641 76.94 110.305 76.952 110.137 77C110.305 74.84 110.365 72.668 110.317 70.484C110.293 68.3 110.245 66.116 110.173 63.932C110.101 61.748 110.053 59.564 110.029 57.38Z" fill="black"/>
<g id="Group_4" transform="translate(76 179)">
<rect id="Rectangle_7" transform="matrix(1 0 0 -1 9.24336 36.9727)" width="158.162" height="28.2432" fill="white" stroke="black" stroke-width="4"/>
<path id="Subtract" d="M190 10H23.4865C16.0381 10 10 16.0381 10 23.4865C10 30.9349 16.0381 36.973 23.4865 36.973H190V47H23.5C10.5213 47 0 36.4787 0 23.5C0 10.5213 10.5213 0 23.5 0H190V10Z" fill="white" stroke="black" stroke-width="4"/>
</g>
<g id="Group_14" transform="translate(99 226)">
<rect id="Rectangle_7_2" transform="matrix(1 0 0 -1 9.24336 36.9727)" width="158.162" height="28.2432" fill="white" stroke="black" stroke-width="4"/>
<path id="Subtract_2" d="M190 10H23.4865C16.0381 10 10 16.0381 10 23.4865C10 30.9349 16.0381 36.973 23.4865 36.973H190V47H23.5C10.5213 47 0 36.4787 0 23.5C0 10.5213 10.5213 0 23.5 0H190V10Z" fill="white" stroke="black" stroke-width="4"/>
</g>
</g>
</svg>
