<svg width="455" height="405" viewBox="0 0 455 405" fill="none" xmlns="http://www.w3.org/2000/svg">
<rect width="450" height="23.2387" transform="matrix(1 0 0 -1 2.06421 402.804)" fill="white" stroke="black" stroke-width="4.12844"/>
<rect width="450" height="23.2387" transform="matrix(1 0 0 -1 2.06421 379.565)" fill="white" stroke="black" stroke-width="4.12844"/>
<path d="M44.1434 204.5L26.4483 356.326H228.172H429.897L412.201 204.5L376.103 261.822L228.172 69.7161L80.2414 261.822L44.1434 204.5Z" stroke="black" stroke-width="4.12844"/>
<line x1="25.015" y1="155.959" x2="67.1332" y2="155.959" stroke="black" stroke-width="4.12844"/>
<line x1="390.064" y1="155.959" x2="432.182" y2="155.959" stroke="black" stroke-width="4.12844"/>
<line x1="208.005" y1="22.7237" x2="250.123" y2="22.7237" stroke="black" stroke-width="4.12844"/>
<line x1="44.8132" y1="134.784" x2="44.8132" y2="204.5" stroke="black" stroke-width="4.12844"/>
<line x1="412.128" y1="134.784" x2="412.128" y2="204.5" stroke="black" stroke-width="4.12844"/>
<line x1="227.803" y1="-5.84898e-08" x2="227.803" y2="69.716" stroke="black" stroke-width="4.12844"/>
<path d="M284.36 290.996C283.035 294.296 279.26 295.896 275.961 294.571L251.789 284.822C252.314 283.497 267.537 247.977 272.686 236.004C273.711 233.629 276.036 232.105 278.61 232.105H280.085V230.355H262.038V232.105H267.412C269.737 232.105 271.312 234.504 270.362 236.629L256.539 268.075L240.791 230.355L252.114 199.809C253.064 197.285 255.464 195.61 258.163 195.61H259.788V193.86H242.991V195.61H247.09C249.34 195.61 250.889 197.835 250.115 199.959L239.766 228.005L228.668 200.009C227.818 197.885 229.393 195.585 231.667 195.585H235.267V193.835H204.146V195.585H206.221C208.795 195.585 211.145 197.135 212.145 199.509C212.67 200.759 212.695 202.134 212.245 203.409L203.146 227.98L192.048 200.009C191.198 197.885 192.773 195.585 195.047 195.585H198.397V193.835H166.776V195.585H169.726C172.376 195.585 174.75 197.21 175.725 199.684L195.772 250.652H196.647L211.02 211.958C212.07 209.183 215.969 209.133 217.069 211.883L246.165 282.522L216.144 270.399C214.145 269.599 212.245 268.774 210.47 267.975C208.695 267.175 207.196 266.3 205.946 265.35C204.721 264.4 203.871 263.3 203.446 262.05C203.021 260.801 203.121 259.376 203.771 257.751C204.296 256.451 205.096 255.426 206.146 254.676C207.196 253.927 208.421 253.852 209.82 254.402C210.045 254.502 210.42 254.701 210.92 254.976C211.42 255.276 211.995 255.601 212.595 255.976C213.195 256.351 213.77 256.726 214.295 257.076C214.82 257.426 215.195 257.651 215.445 257.751C219.369 259.326 222.144 258.076 223.793 254.002C224.518 252.227 224.518 250.452 223.818 248.627C223.118 246.828 221.869 245.553 220.119 244.853C218.119 244.053 216.219 243.778 214.47 244.053C212.695 244.328 211.095 244.978 209.645 246.003C208.196 247.028 206.921 248.302 205.821 249.827C204.721 251.352 203.796 253.002 203.096 254.776C201.547 258.626 200.747 262.075 200.672 265.075C200.622 268.1 201.122 270.799 202.171 273.199C203.221 275.598 204.696 277.698 206.596 279.548C208.496 281.373 210.62 283.022 212.995 284.472C215.37 285.922 217.869 287.222 220.544 288.397C223.218 289.546 244.415 298.145 244.415 298.145L243.141 301.345C242.566 302.845 241.866 304.494 241.091 306.319C240.291 308.144 239.391 309.869 238.341 311.493C237.291 313.118 236.142 314.468 234.867 315.543C233.592 316.618 232.192 317.168 230.692 317.168C230.017 317.168 229.443 316.943 228.943 316.493C228.443 316.043 228.193 315.343 228.193 314.443C228.193 313.193 228.468 312.118 228.993 311.218C229.517 310.319 229.792 309.119 229.792 307.619C229.792 305.869 229.093 304.569 227.693 303.694C226.268 302.82 224.793 302.395 223.218 302.395C221.069 302.395 219.219 302.945 217.669 304.019C216.144 305.094 215.37 306.844 215.37 309.244C215.37 312.393 216.544 314.868 218.919 316.643C221.294 318.417 224.343 319.317 228.068 319.317C231.542 319.317 234.342 318.442 236.416 316.693C238.491 314.943 240.366 312.218 242.016 308.469C243.341 305.619 244.715 302.42 246.165 298.87L270.287 308.594C273.586 309.919 275.186 313.693 273.861 316.993L273.211 318.642L274.836 319.292L287.184 288.672L285.559 288.022L284.36 290.996Z" fill="#231815"/>
</svg>
