<svg width="548" height="180" viewBox="0 0 548 180" fill="none" xmlns="http://www.w3.org/2000/svg">
<rect x="2" y="70" width="543.255" height="11" fill="white" stroke="black" stroke-width="4"/>
<rect x="2" y="167" width="543.255" height="11" fill="white" stroke="black" stroke-width="4"/>
<rect x="20.505" y="81" width="31.7229" height="86" fill="white" stroke="black" stroke-width="4"/>
<rect x="432.903" y="81" width="31.7229" height="86" fill="white" stroke="black" stroke-width="4"/>
<rect x="242.566" y="81" width="31.7229" height="86" fill="white" stroke="black" stroke-width="4"/>
<rect x="496.349" y="81" width="31.7229" height="86" fill="white" stroke="black" stroke-width="4"/>
<rect x="306.011" y="81" width="31.7229" height="86" fill="white" stroke="black" stroke-width="4"/>
<rect x="369.457" y="81" width="31.7229" height="86" fill="white" stroke="black" stroke-width="4"/>
<rect x="52.228" y="81" width="31.7229" height="86" fill="white" stroke="black" stroke-width="4"/>
<rect x="115.674" y="81" width="31.7229" height="86" fill="white" stroke="black" stroke-width="4"/>
<rect x="179.12" y="81" width="31.7229" height="86" fill="white" stroke="black" stroke-width="4"/>
<rect x="251" y="2" width="285" height="14.5169" fill="white" stroke="black" stroke-width="4"/>
<rect width="247" height="53.4831" transform="matrix(1 0 0 -1 270 70)" fill="white" stroke="black" stroke-width="4"/>
<rect width="52" height="37.4382" transform="matrix(1 0 0 -1 439 70)" fill="white" stroke="black" stroke-width="4"/>
<rect width="26" height="16.809" transform="matrix(1 0 0 -1 384 49.3708)" fill="white" stroke="black" stroke-width="4"/>
<rect width="26" height="16.809" transform="matrix(1 0 0 -1 340 49.3708)" fill="white" stroke="black" stroke-width="4"/>
<rect width="26" height="16.809" transform="matrix(1 0 0 -1 296 49.3708)" fill="white" stroke="black" stroke-width="4"/>
<rect x="105" y="17" width="62" height="17" fill="white" stroke="black" stroke-width="4"/>
<rect width="41" height="36" transform="matrix(1 0 0 -1 116 70)" fill="white" stroke="black" stroke-width="4"/>
</svg>
