<svg width="360" height="360" viewBox="0 0 360 360" fill="none" xmlns="http://www.w3.org/2000/svg">
<style>
svg { overflow: visible; }
@keyframes kf_a_opacity_0 {
  0% {
    animation-timing-function: linear;
    opacity: 0;
  }
  4.65% {
    animation-timing-function: cubic-bezier(0.5, 0, 0.5, 1);
    opacity: 0;
  }
  6.65% {
    animation-timing-function: linear;
    opacity: 1;
  }
  19.7% {
    animation-timing-function: cubic-bezier(0.5, 0, 0.5, 1);
    opacity: 1;
  }
  21.55% {
    animation-timing-function: linear;
    opacity: 0;
  }
  100% {
    opacity: 0;
  }
}
#a {
  animation: kf_a_opacity_0 2s linear infinite;
}
@keyframes kf_h_opacity_0 {
  0% {
    animation-timing-function: linear;
    opacity: 0;
  }
  1.71% {
    animation-timing-function: cubic-bezier(0.5, 0, 0.5, 1);
    opacity: 0;
  }
  3.71% {
    animation-timing-function: linear;
    opacity: 1;
  }
  16.76% {
    animation-timing-function: cubic-bezier(0.5, 0, 0.5, 1);
    opacity: 1;
  }
  18.61% {
    animation-timing-function: linear;
    opacity: 0;
  }
  100% {
    opacity: 0;
  }
}
#h {
  animation: kf_h_opacity_0 2s linear infinite;
}
@keyframes kf_b_opacity_0 {
  0% {
    animation-timing-function: linear;
    opacity: 0;
  }
  12.7% {
    animation-timing-function: cubic-bezier(0.5, 0, 0.5, 1);
    opacity: 0;
  }
  14.7% {
    animation-timing-function: linear;
    opacity: 1;
  }
  27.75% {
    animation-timing-function: cubic-bezier(0.5, 0, 0.5, 1);
    opacity: 1;
  }
  29.6% {
    animation-timing-function: linear;
    opacity: 0;
  }
  100% {
    opacity: 0;
  }
}
#b {
  animation: kf_b_opacity_0 2s linear infinite;
}
@keyframes kf_i_opacity_0 {
  0% {
    animation-timing-function: cubic-bezier(0.5, 0, 0.5, 1);
    opacity: 0;
  }
  2% {
    animation-timing-function: linear;
    opacity: 1;
  }
  15.05% {
    animation-timing-function: cubic-bezier(0.5, 0, 0.5, 1);
    opacity: 1;
  }
  16.9% {
    animation-timing-function: linear;
    opacity: 0;
  }
  100% {
    opacity: 0;
  }
}
#i {
  animation: kf_i_opacity_0 2s linear infinite;
}
@keyframes kf_c_opacity_0 {
  0% {
    animation-timing-function: linear;
    opacity: 0;
  }
  4% {
    animation-timing-function: cubic-bezier(0.5, 0, 0.5, 1);
    opacity: 0;
  }
  6% {
    animation-timing-function: linear;
    opacity: 1;
  }
  19.05% {
    animation-timing-function: cubic-bezier(0.5, 0, 0.5, 1);
    opacity: 1;
  }
  20.9% {
    animation-timing-function: linear;
    opacity: 0;
  }
  100% {
    opacity: 0;
  }
}
#c {
  animation: kf_c_opacity_0 2s linear infinite;
}
@keyframes kf_j_opacity_0 {
  0% {
    animation-timing-function: linear;
    opacity: 0;
  }
  12.09% {
    animation-timing-function: cubic-bezier(0.5, 0, 0.5, 1);
    opacity: 0;
  }
  14.09% {
    animation-timing-function: linear;
    opacity: 1;
  }
  27.14% {
    animation-timing-function: cubic-bezier(0.5, 0, 0.5, 1);
    opacity: 1;
  }
  28.99% {
    animation-timing-function: linear;
    opacity: 0;
  }
  100% {
    opacity: 0;
  }
}
#j {
  animation: kf_j_opacity_0 2s linear infinite;
}
@keyframes kf_d_opacity_0 {
  0% {
    animation-timing-function: linear;
    opacity: 0;
  }
  6% {
    animation-timing-function: cubic-bezier(0.5, 0, 0.5, 1);
    opacity: 0;
  }
  8% {
    animation-timing-function: linear;
    opacity: 1;
  }
  21.05% {
    animation-timing-function: cubic-bezier(0.5, 0, 0.5, 1);
    opacity: 1;
  }
  22.9% {
    animation-timing-function: linear;
    opacity: 0;
  }
  100% {
    opacity: 0;
  }
}
#d {
  animation: kf_d_opacity_0 2s linear infinite;
}
@keyframes kf_k_opacity_0 {
  0% {
    animation-timing-function: linear;
    opacity: 0;
  }
  5.18% {
    animation-timing-function: cubic-bezier(0.5, 0, 0.5, 1);
    opacity: 0;
  }
  7.18% {
    animation-timing-function: linear;
    opacity: 1;
  }
  20.23% {
    animation-timing-function: cubic-bezier(0.5, 0, 0.5, 1);
    opacity: 1;
  }
  22.08% {
    animation-timing-function: linear;
    opacity: 0;
  }
  100% {
    opacity: 0;
  }
}
#k {
  animation: kf_k_opacity_0 2s linear infinite;
}
@keyframes kf_e_opacity_0 {
  0% {
    animation-timing-function: linear;
    opacity: 0;
  }
  8% {
    animation-timing-function: cubic-bezier(0.5, 0, 0.5, 1);
    opacity: 0;
  }
  10% {
    animation-timing-function: linear;
    opacity: 1;
  }
  23.05% {
    animation-timing-function: cubic-bezier(0.5, 0, 0.5, 1);
    opacity: 1;
  }
  24.9% {
    animation-timing-function: linear;
    opacity: 0;
  }
  100% {
    opacity: 0;
  }
}
#e {
  animation: kf_e_opacity_0 2s linear infinite;
}
@keyframes kf_l_opacity_0 {
  0% {
    animation-timing-function: linear;
    opacity: 0;
  }
  9.58% {
    animation-timing-function: cubic-bezier(0.5, 0, 0.5, 1);
    opacity: 0;
  }
  11.58% {
    animation-timing-function: linear;
    opacity: 1;
  }
  24.63% {
    animation-timing-function: cubic-bezier(0.5, 0, 0.5, 1);
    opacity: 1;
  }
  26.48% {
    animation-timing-function: linear;
    opacity: 0;
  }
  100% {
    opacity: 0;
  }
}
#l {
  animation: kf_l_opacity_0 2s linear infinite;
}
@keyframes kf_f_opacity_0 {
  0% {
    animation-timing-function: linear;
    opacity: 0;
  }
  3.33% {
    animation-timing-function: cubic-bezier(0.5, 0, 0.5, 1);
    opacity: 0;
  }
  5.33% {
    animation-timing-function: linear;
    opacity: 1;
  }
  18.38% {
    animation-timing-function: cubic-bezier(0.5, 0, 0.5, 1);
    opacity: 1;
  }
  20.23% {
    animation-timing-function: linear;
    opacity: 0;
  }
  100% {
    opacity: 0;
  }
}
#f {
  animation: kf_f_opacity_0 2s linear infinite;
}
@keyframes kf_m_opacity_0 {
  0% {
    animation-timing-function: linear;
    opacity: 0;
  }
  7.03% {
    animation-timing-function: cubic-bezier(0.5, 0, 0.5, 1);
    opacity: 0;
  }
  9.03% {
    animation-timing-function: linear;
    opacity: 1;
  }
  22.08% {
    animation-timing-function: cubic-bezier(0.5, 0, 0.5, 1);
    opacity: 1;
  }
  23.93% {
    animation-timing-function: linear;
    opacity: 0;
  }
  100% {
    opacity: 0;
  }
}
#m {
  animation: kf_m_opacity_0 2s linear infinite;
}
@keyframes kf_g_opacity_0 {
  0% {
    animation-timing-function: linear;
    opacity: 0;
  }
  12.09% {
    animation-timing-function: cubic-bezier(0.5, 0, 0.5, 1);
    opacity: 0;
  }
  14.09% {
    animation-timing-function: linear;
    opacity: 1;
  }
  27.14% {
    animation-timing-function: cubic-bezier(0.5, 0, 0.5, 1);
    opacity: 1;
  }
  28.99% {
    animation-timing-function: linear;
    opacity: 0;
  }
  100% {
    opacity: 0;
  }
}
#g {
  animation: kf_g_opacity_0 2s linear infinite;
}
@keyframes kf_n_opacity_0 {
  0% {
    animation-timing-function: linear;
    opacity: 0;
  }
  3.33% {
    animation-timing-function: cubic-bezier(0.5, 0, 0.5, 1);
    opacity: 0;
  }
  5.33% {
    animation-timing-function: linear;
    opacity: 1;
  }
  18.38% {
    animation-timing-function: cubic-bezier(0.5, 0, 0.5, 1);
    opacity: 1;
  }
  20.23% {
    animation-timing-function: linear;
    opacity: 0;
  }
  100% {
    opacity: 0;
  }
}
#n {
  animation: kf_n_opacity_0 2s linear infinite;
}
</style>
<g id="Frame_15">
<path id="DIGITAL" transform="translate(96 158)" d="M22.2028 19.9097V32.0673L15.9515 40H5.47525C3.11845 40 1.94005 35.3295 1.94005 25.9885C1.94005 16.6475 3.11845 11.9771 5.47525 11.9771H15.9515L22.2028 19.9097ZM14.5719 36.6804L18.7969 30.6446V21.1168L14.615 15.2967H7.19974C5.9926 15.2967 5.38903 18.8606 5.38903 25.9885C5.38903 33.1164 5.9926 36.6804 7.19974 36.6804H14.5719ZM40.086 15.2105C38.2178 15.2105 37.2837 18.8032 37.2837 25.9885C37.2837 33.1739 38.2178 36.7666 40.086 36.7666C41.9542 36.7666 42.8882 37.2983 42.8882 38.3617C42.8882 39.4539 41.9542 40 40.086 40H31.0324C29.1642 40 28.2301 39.4539 28.2301 38.3617C28.2301 37.2983 29.1642 36.7666 31.0324 36.7666C32.9006 36.7666 33.8347 33.1739 33.8347 25.9885C33.8347 18.8032 32.9006 15.2105 31.0324 15.2105C29.1642 15.2105 28.2301 14.6644 28.2301 13.5722C28.2301 12.5088 30.6731 11.9771 35.5592 11.9771C40.4452 11.9771 42.8882 12.5088 42.8882 13.5722C42.8882 14.6644 41.9542 15.2105 40.086 15.2105ZM69.1783 33.2745C69.1783 37.7582 68.6897 40 67.7125 40C66.7353 40 66.2467 38.836 66.2467 36.5079C66.3041 34.5247 66.1604 33.8637 65.8155 34.5247C65.4706 35.1571 64.5653 37.1259 63.0995 40.4311H53.701L48.9155 32.7571V19.1768L54.1321 11.5459H63.5306L68.2298 16.7194C68.5747 19.8522 68.2442 21.4186 67.2382 21.4186C66.2323 21.4186 65.5856 20.3265 65.2982 18.1421L62.2803 14.8656H52.3645V31.3776L55.5117 37.1115H60.9007L64.1773 33.5763C64.8383 30.9895 64.2922 29.7105 62.539 29.7393C60.757 29.7968 59.866 29.2794 59.866 28.1872C59.866 27.1238 61.4181 26.5921 64.5222 26.5921C67.6262 26.5921 69.1783 28.8196 69.1783 33.2745ZM87.4926 15.2105C85.6244 15.2105 84.6903 18.8032 84.6903 25.9885C84.6903 33.1739 85.6244 36.7666 87.4926 36.7666C89.3608 36.7666 90.2949 37.2983 90.2949 38.3617C90.2949 39.4539 89.3608 40 87.4926 40H78.439C76.5708 40 75.6367 39.4539 75.6367 38.3617C75.6367 37.2983 76.5708 36.7666 78.439 36.7666C80.3072 36.7666 81.2413 33.1739 81.2413 25.9885C81.2413 18.8032 80.3072 15.2105 78.439 15.2105C76.5708 15.2105 75.6367 14.6644 75.6367 13.5722C75.6367 12.5088 78.0797 11.9771 82.9658 11.9771C87.8518 11.9771 90.2949 12.5088 90.2949 13.5722C90.2949 14.6644 89.3608 15.2105 87.4926 15.2105ZM117.878 13.5722C117.878 14.6644 116.297 15.2105 113.136 15.2105C109.974 15.2105 108.394 19.3349 108.394 27.5837C108.394 35.8612 107.819 40 106.669 40C105.519 40 104.945 35.8612 104.945 27.5837C104.945 19.3349 103.364 15.2105 100.202 15.2105C97.0407 15.2105 95.4599 14.6644 95.4599 13.5722C95.4599 12.5088 99.1963 11.9771 106.669 11.9771C114.142 11.9771 117.878 12.5088 117.878 13.5722ZM139.081 40C138.592 40 138.133 39.7557 137.701 39.2671C137.299 38.7785 136.925 38.1749 136.581 37.4564C136.264 36.7091 135.991 35.9762 135.761 35.2577C135.531 34.5104 135.359 33.8924 135.244 33.4038C135.129 32.9152 135.072 32.6709 135.072 32.6709H130.329C127.168 32.6709 125.228 33.8924 124.509 36.3355C123.791 38.7785 122.828 40 121.621 40C121.333 40 121.189 39.5976 121.189 38.7929C121.218 37.9881 121.362 36.9103 121.621 35.5594C121.879 34.2086 122.224 32.6997 122.655 31.0327C123.115 29.3369 123.618 27.5837 124.164 25.773C124.71 23.9623 125.271 22.2234 125.846 20.5564C126.449 18.8606 127.038 17.3373 127.613 15.9865C128.188 14.6356 128.705 13.5578 129.165 12.7531C129.654 11.9483 130.042 11.5459 130.329 11.5459C130.645 11.5459 131.033 11.9483 131.493 12.7531C131.953 13.5578 132.471 14.6356 133.045 15.9865C133.62 17.3373 134.209 18.8606 134.813 20.5564C135.417 22.2234 135.991 23.9623 136.537 25.773C137.084 27.5837 137.572 29.3369 138.003 31.0327C138.463 32.6997 138.822 34.2086 139.081 35.5594C139.368 36.9103 139.512 37.9881 139.512 38.7929C139.541 39.5976 139.397 40 139.081 40ZM130.329 29.3944C132.859 29.3944 133.491 27.2388 132.226 22.9276C130.962 18.6163 129.697 18.6163 128.432 22.9276C127.196 27.2388 127.829 29.3944 130.329 29.3944ZM155.8 36.7666C161.261 36.7666 163.992 37.2983 163.992 38.3617C163.992 39.4539 161.218 40 155.671 40H145.755C144.692 40 144.16 35.3295 144.16 25.9885C144.16 16.6475 144.735 11.9771 145.884 11.9771C147.034 11.9771 147.609 16.1015 147.609 24.3503C147.609 32.6278 150.339 36.7666 155.8 36.7666Z" fill="black"/>
<path id="a" transform="translate(96 107)" d="M19.2712 18.4439C20.4208 18.4439 20.9957 22.0366 20.9957 29.2219C20.9957 36.4073 20.4783 40 19.4436 40C18.4089 40 17.8628 39.8419 17.8054 39.5258L17.5467 36.5941V34.2661C17.5467 33.7775 17.4892 33.6769 17.3742 33.9643C17.2593 34.2517 17.0868 34.9271 16.8569 35.9906L13.4079 40.4311H8.06199L4.31122 37.5857L2.19872 32.4985V26.0316L4.35434 20.9013L8.32066 18.0128H13.7528L16.9431 21.7204C17.1443 22.7264 17.288 23.2293 17.3742 23.2293C17.4892 23.2006 17.5467 22.6545 17.5467 21.5911C17.5467 19.4929 18.1215 18.4439 19.2712 18.4439ZM14.3133 37.1115L17.5467 32.6709V25.6436L14.3133 21.3755H8.40688L5.6477 25.6005V32.8003L8.62245 37.1115H14.3133Z" fill="black"/>
<path id="h" transform="translate(96 201)" d="M15.6066 18.0128L18.7969 19.4355L20.9957 22.8844V32.8434C20.9957 37.6145 20.4208 40 19.2712 40C18.1215 40 17.5467 37.7582 17.5467 33.2745V21.4617H9.82959L6.72551 25.1263C6.35187 26.5921 6.16505 29.4375 6.16505 33.6625C6.16505 37.8875 5.59022 40 4.44056 40C3.2909 40 2.71607 34.9702 2.71607 24.9107C2.71607 14.8512 3.2909 9.82144 4.44056 9.82144C5.59022 9.82144 6.16505 12.3219 6.16505 17.323C6.16505 22.3527 6.42372 24.0341 6.94107 22.3671L10.8212 18.0128H15.6066Z" fill="black"/>
<path id="b" transform="translate(120 107)" d="M4.44056 9.82144C5.59022 9.82144 6.16505 12.2645 6.16505 17.1505C6.16505 19.5935 6.26564 20.9013 6.46683 21.0737C6.69677 21.2174 7.04166 20.1971 7.50153 18.0128H15.3911L19.3574 20.9013L21.513 26.0316V32.4985L19.4005 37.5857L15.6497 40.4311H10.3038L6.85484 36.1199C6.62491 35.0852 6.45246 34.4242 6.3375 34.1367C6.22253 33.8206 6.16505 33.8924 6.16505 34.3523V36.5941L5.90638 39.5258C5.84889 39.8419 5.3028 40 4.26811 40C3.23342 40 2.71607 34.9702 2.71607 24.9107C2.71607 14.8512 3.2909 9.82144 4.44056 9.82144ZM9.39847 37.1115H15.0893L18.064 32.8003V25.6005L15.3048 21.3755H9.39847L6.16505 25.6436V32.6709L9.39847 37.1115Z" fill="black"/>
<path id="i" transform="translate(120 201)" d="M14.5288 11.8908C14.5288 13.2992 13.7815 14.0033 12.287 14.0033C10.7924 14.0033 10.0451 13.2992 10.0451 11.8908C10.0451 10.5112 10.7924 9.82144 12.287 9.82144C13.7815 9.82144 14.5288 10.5112 14.5288 11.8908ZM17.0293 36.7666C19.0412 36.7666 20.0472 37.2983 20.0472 38.3617C20.0472 39.4539 17.3167 40 11.8559 40C6.39498 40 3.66454 39.4539 3.66454 38.3617C3.66454 37.2983 4.8142 36.7666 7.11352 36.7666C9.41284 36.7666 10.5625 34.2517 10.5625 29.2219C10.5625 24.1922 9.41284 21.6773 7.11352 21.6773C4.8142 21.6773 3.66454 21.1312 3.66454 20.039C3.66454 18.9756 5.38903 18.4439 8.83801 18.4439C12.287 18.4439 14.0115 21.4905 14.0115 27.5837C14.0115 33.7056 15.0174 36.7666 17.0293 36.7666Z" fill="black"/>
<path id="c" transform="translate(144 107)" d="M21.0388 35.8612L15.9946 40.4311H9.44158L4.87168 37.7151L2.19872 32.6278V25.9023L4.87168 20.7719L9.44158 18.0128H15.9515L20.9957 22.5827C21.3406 25.1981 20.9957 26.5059 19.961 26.5059C18.8975 26.5059 18.1071 25.658 17.5898 23.9623L14.615 21.3324H10.4332L7.4153 23.2293L5.6477 26.8077V31.7225L7.4153 35.2577L10.4332 37.1115H14.6582L17.6329 34.4816C18.1502 32.7571 18.9263 31.8949 19.961 31.8949C20.9957 31.8949 21.3549 33.217 21.0388 35.8612Z" fill="black"/>
<path id="j" transform="translate(144 201)" d="M17.8916 11.8908C17.8916 13.2992 17.1443 14.0033 15.6497 14.0033C14.1552 14.0033 13.4079 13.2992 13.4079 11.8908C13.4079 10.5112 14.1552 9.82144 15.6497 9.82144C17.1443 9.82144 17.8916 10.5112 17.8916 11.8908ZM17.8916 29.8686V45.001L13.9684 48.6224H7.4153C5.31718 48.6224 4.26811 48.0764 4.26811 46.9842C4.26811 45.9207 5.31718 45.389 7.4153 45.389C8.47874 45.389 9.41284 45.389 10.2176 45.389C11.0511 45.389 11.7696 45.4034 12.3732 45.4321L14.4426 43.5783V31.4638C14.4426 24.9395 12.7468 21.6773 9.35535 21.6773C5.96386 21.6773 4.26811 21.1312 4.26811 20.039C4.26811 18.9756 6.53869 18.4439 11.0798 18.4439C15.621 18.4439 17.8916 22.2521 17.8916 29.8686Z" fill="black"/>
<path id="d" transform="translate(168 107)" d="M19.2712 9.82144C20.4208 9.82144 20.9957 14.8512 20.9957 24.9107C20.9957 34.9702 20.4783 40 19.4436 40C18.4089 40 17.8628 39.8419 17.8054 39.5258L17.5467 36.5941V34.3523C17.5467 33.8924 17.4892 33.8206 17.3742 34.1367C17.2593 34.4242 17.0868 35.0852 16.8569 36.1199L13.4079 40.4311H8.06199L4.31122 37.5857L2.19872 32.4985V26.0316L4.35434 20.9013L8.32066 18.0128H16.2102C16.6701 20.1971 17.0006 21.2174 17.2018 21.0737C17.4317 20.9013 17.5467 19.5935 17.5467 17.1505C17.5467 12.2645 18.1215 9.82144 19.2712 9.82144ZM14.3133 37.1115L17.5467 32.6709V25.6436L14.3133 21.3755H8.40688L5.6477 25.6005V32.8003L8.62245 37.1115H14.3133Z" fill="black"/>
<path id="k" transform="translate(168 201)" d="M2.71607 24.9107C2.71607 14.8512 3.2909 9.82144 4.44056 9.82144C5.59022 9.82144 6.16505 14.8512 6.16505 24.9107C6.16505 34.9702 5.59022 40 4.44056 40C3.2909 40 2.71607 34.9702 2.71607 24.9107ZM16.7707 34.0074C20.3346 38.0025 21.398 40 19.961 40C19.4724 40 18.7969 39.7413 17.9347 39.224C17.1012 38.6779 16.1958 37.9594 15.2186 37.0684C14.2701 36.1486 13.3792 35.1283 12.5457 34.0074C11.7409 32.8577 11.1086 31.6506 10.6487 30.386C10.1889 29.1213 10.0308 27.8711 10.1745 26.6352C10.3469 25.3993 10.9361 24.2497 11.9421 23.1862C15.0174 20.0247 17.3599 18.4439 18.9694 18.4439C20.6076 18.4439 19.7598 20.039 16.4258 23.2293C13.0917 26.4196 13.2067 30.0123 16.7707 34.0074Z" fill="black"/>
<path id="e" transform="translate(192 107)" d="M19.7454 33.0589C20.8376 33.0589 21.1968 34.1511 20.8232 36.3355L16.2964 40.4311H9.5278L4.82857 37.5857L2.19872 32.4985V26.0316L4.74235 20.9013L9.35535 18.0128H17.0293L21.7286 24.264C21.5561 28.1729 18.84 30.1273 13.5804 30.1273C8.29192 30.1273 5.7483 31.1764 5.94949 33.2745L9.65714 37.1115H16.8569C17.6616 34.4098 18.6245 33.0589 19.7454 33.0589ZM9.65714 21.3324L6.50995 24.3503C6.07882 26.1322 7.87517 27.0232 11.899 27.0232C15.9228 27.0232 17.8772 26.1035 17.7622 24.264L14.7875 21.3324H9.65714Z" fill="black"/>
<path id="l" transform="translate(192 201)" d="M18.4951 36.7666C20.0184 36.7666 20.7801 37.2983 20.7801 38.3617C20.7801 39.4539 20.0184 40 18.4951 40H12.7612L8.83801 36.3786V22.8413C8.83801 16.317 7.83206 13.0549 5.82015 13.0549C3.77951 13.0549 2.75918 12.5088 2.75918 11.4166C2.75918 10.3532 3.77951 9.82144 5.82015 9.82144H10.5625C11.7122 9.82144 12.287 13.6297 12.287 21.2462V34.9559L14.3564 36.8097C14.9599 36.781 15.6066 36.7666 16.2964 36.7666C16.9862 36.7666 17.7191 36.7666 18.4951 36.7666Z" fill="black"/>
<path id="f" transform="translate(216 107)" d="M11.511 13.1842V17.7972C11.511 18.2283 13.063 18.4439 16.1671 18.4439C19.2424 18.4439 20.7801 18.9756 20.7801 20.039C20.7801 21.1312 19.2424 21.6773 16.1671 21.6773C13.063 21.6773 11.511 24.7239 11.511 30.8171C11.511 36.939 10.9361 40 9.78648 40C8.63682 40 8.06199 36.939 8.06199 30.8171C8.06199 24.7239 7.21411 21.6773 5.51837 21.6773C3.79388 21.6773 2.93163 21.1312 2.93163 20.039C2.93163 18.9756 3.79388 18.4439 5.51837 18.4439C7.21411 18.4439 8.06199 18.2283 8.06199 17.7972V13.4429L11.9852 9.82144H18.3227C20.2771 9.82144 21.2543 10.3963 21.2543 11.5459C21.2543 12.6956 20.2771 13.2704 18.3227 13.2704C17.3455 13.2704 16.2821 13.2704 15.1324 13.2704C14.0115 13.2417 12.8043 13.2129 11.511 13.1842Z" fill="black"/>
<path id="m" transform="translate(216 201)" d="M22.289 18.0128V32.8434C22.289 37.6145 21.7142 40 20.5645 40C19.4149 40 18.84 37.5426 18.84 32.6278V23.2725L17.9347 21.4617H14.8306C14.0258 24.2497 13.6235 28.0435 13.6235 32.8434C13.6235 37.6145 13.0774 40 11.9852 40C10.893 40 10.3469 37.5426 10.3469 32.6278V23.2293L9.57092 21.4617H7.02729L5.3028 24.9969C5.1591 25.7155 5.04413 26.7933 4.95791 28.2304C4.90042 29.6674 4.87168 31.4494 4.87168 33.5763C4.87168 37.8588 4.29685 40 3.14719 40C1.99753 40 1.4227 36.4073 1.4227 29.2219C1.4227 22.0366 1.99753 18.4439 3.14719 18.4439C4.29685 18.4439 4.87168 19.4642 4.87168 21.5049C4.87168 23.488 5.0585 23.6748 5.43214 22.0653L7.7602 18.0128H12.1576C12.7612 19.881 13.1923 21.0881 13.451 21.6342C13.7384 22.1803 13.9827 22.0797 14.1839 21.3324L16.4258 18.0128H22.289Z" fill="black"/>
<path id="g" transform="translate(240 107)" d="M22.9788 20.2546C22.9788 21.5192 22.0591 22.1515 20.2196 22.1515C18.6963 21.5767 17.9203 21.3755 17.8916 21.548C17.8628 21.7204 18.4233 22.324 19.573 23.3587V30.1704L17.1587 34.3523L13.1061 36.5941C11.4966 36.5941 9.82959 36.6372 8.1051 36.7235L5.82015 37.4995V39.224L6.81173 40H15.9946L20.4783 43.1903V47.7171C20.4783 48.3207 19.9035 48.6224 18.7538 48.6224C17.6042 48.6224 17.0293 48.4644 17.0293 48.1482V45.4321L14.6582 43.3196H2.37117V37.6719L5.34592 35.9475C6.72551 35.9762 6.5818 35.6744 4.91479 35.0421L1.7676 30.5584V24.6089L4.225 20.3408L8.32066 18.0128H12.1576C12.9912 18.3289 14.8593 18.4583 17.7622 18.4008C19.6304 18.4008 20.9669 18.5589 21.7717 18.875C22.5764 19.1624 22.9788 19.6223 22.9788 20.2546ZM12.9337 33.3607L16.124 30.1273V24.652L12.9337 21.3755H8.45L5.21658 24.6089V30.1273L8.45 33.3607H12.9337Z" fill="black"/>
<path id="n" transform="translate(240 201)" d="M15.6066 18.0128L18.7969 19.4355L20.9957 22.8844V32.8434C20.9957 37.6145 20.4208 40 19.2712 40C18.1215 40 17.5467 37.7582 17.5467 33.2745V21.4617H9.82959L6.76862 25.1694C6.36624 26.7214 6.16505 29.5668 6.16505 33.7056C6.16505 37.9019 5.59022 40 4.44056 40C3.2909 40 2.71607 36.4073 2.71607 29.2219C2.71607 22.0366 3.2909 18.4439 4.44056 18.4439C5.59022 18.4439 6.16505 19.5073 6.16505 21.6342C6.16505 23.7898 6.42372 24.0341 6.94107 22.3671L10.8212 18.0128H15.6066Z" fill="black"/>
</g>
</svg>
