<svg width="360" height="360" viewBox="0 0 360 360" fill="none" xmlns="http://www.w3.org/2000/svg">
<style>
svg { overflow: visible; }
@keyframes kf_Rectangle_20_transform_0 {
  0% {
    animation-timing-function: cubic-bezier(0.5, 0, 0.5, 1);
    transform: translateX(127px) translateY(124px) translateX(0px) translateY(0px) translate(-26.5px, 50.5px) rotate(0rad) translate(26.5px, -50.5px) rotate(1.571rad) scaleX(1) scaleY(1) skewX(0rad);
  }
  30.15% {
    transform: translateX(127px) translateY(124px) translateX(0px) translateY(0px) translate(-26.5px, 50.5px) rotate(0.262rad) translate(26.5px, -50.5px) rotate(1.571rad) scaleX(1) scaleY(1) skewX(0rad);
  }
  100% {
    transform: translateX(127px) translateY(124px) translateX(0px) translateY(0px) translate(-26.5px, 50.5px) rotate(0.262rad) translate(26.5px, -50.5px) rotate(1.571rad) scaleX(1) scaleY(1) skewX(0rad);
  }
}
#Rectangle_20 {
  transform-origin: 0 0;
  animation: kf_Rectangle_20_transform_0 2s linear infinite;
}
@keyframes kf_Rectangle_23_transform_0 {
  0% {
    animation-timing-function: cubic-bezier(0.5, 0, 0.5, 1);
    transform: translateX(233px) translateY(106px) translateX(0px) translateY(0px) translate(-26.5px, 50.5px) rotate(0rad) translate(26.5px, -50.5px) rotate(1.571rad) scaleX(1) scaleY(1) skewX(0rad);
  }
  30.15% {
    transform: translateX(233px) translateY(106px) translateX(0px) translateY(0px) translate(-26.5px, 50.5px) rotate(0.262rad) translate(26.5px, -50.5px) rotate(1.571rad) scaleX(1) scaleY(1) skewX(0rad);
  }
  100% {
    transform: translateX(233px) translateY(106px) translateX(0px) translateY(0px) translate(-26.5px, 50.5px) rotate(0.262rad) translate(26.5px, -50.5px) rotate(1.571rad) scaleX(1) scaleY(1) skewX(0rad);
  }
}
#Rectangle_23 {
  transform-origin: 0 0;
  animation: kf_Rectangle_23_transform_0 2s linear infinite;
}
@keyframes kf_Rectangle_22_transform_0 {
  0% {
    animation-timing-function: cubic-bezier(0.5, 0, 0.5, 1);
    transform: translateX(180px) translateY(148px) translateX(0px) translateY(0px) translate(-26.5px, 50.5px) rotate(0rad) translate(26.5px, -50.5px) rotate(1.571rad) scaleX(1) scaleY(1) skewX(0rad);
  }
  30.15% {
    transform: translateX(180px) translateY(148px) translateX(0px) translateY(0px) translate(-26.5px, 50.5px) rotate(-0.262rad) translate(26.5px, -50.5px) rotate(1.571rad) scaleX(1) scaleY(1) skewX(0rad);
  }
  100% {
    transform: translateX(180px) translateY(148px) translateX(0px) translateY(0px) translate(-26.5px, 50.5px) rotate(-0.262rad) translate(26.5px, -50.5px) rotate(1.571rad) scaleX(1) scaleY(1) skewX(0rad);
  }
}
#Rectangle_22 {
  transform-origin: 0 0;
  animation: kf_Rectangle_22_transform_0 2s linear infinite;
}
@keyframes kf_Rectangle_24_transform_0 {
  0% {
    animation-timing-function: cubic-bezier(0.5, 0, 0.5, 1);
    transform: translateX(286px) translateY(106px) translateX(0px) translateY(0px) translate(-26.5px, 50.5px) rotate(0rad) translate(26.5px, -50.5px) rotate(1.571rad) scaleX(1) scaleY(1) skewX(0rad);
  }
  30.15% {
    transform: translateX(286px) translateY(106px) translateX(0px) translateY(0px) translate(-26.5px, 50.5px) rotate(-0.262rad) translate(26.5px, -50.5px) rotate(1.571rad) scaleX(1) scaleY(1) skewX(0rad);
  }
  100% {
    transform: translateX(286px) translateY(106px) translateX(0px) translateY(0px) translate(-26.5px, 50.5px) rotate(-0.262rad) translate(26.5px, -50.5px) rotate(1.571rad) scaleX(1) scaleY(1) skewX(0rad);
  }
}
#Rectangle_24 {
  transform-origin: 0 0;
  animation: kf_Rectangle_24_transform_0 2s linear infinite;
}
@keyframes kf_L_transform_0 {
  0% {
    animation-timing-function: cubic-bezier(0.5, 0, 0.5, 1);
    transform: translateX(90px) translateY(136px) translateX(0px) translateY(0px) translate(12.5px, 38px) rotate(0rad) translate(-12.5px, -38px);
  }
  30.15% {
    transform: translateX(90px) translateY(136px) translateX(0px) translateY(0px) translate(12.5px, 38px) rotate(0.262rad) translate(-12.5px, -38px);
  }
  100% {
    transform: translateX(90px) translateY(136px) translateX(0px) translateY(0px) translate(12.5px, 38px) rotate(0.262rad) translate(-12.5px, -38px);
  }
}
#L {
  transform-origin: 0 0;
  animation: kf_L_transform_0 2s linear infinite;
}
@keyframes kf_G_transform_0 {
  0% {
    animation-timing-function: cubic-bezier(0.5, 0, 0.5, 1);
    transform: translateX(196px) translateY(118px) translateX(0px) translateY(0px) translate(12.5px, 38px) rotate(0rad) translate(-12.5px, -38px);
  }
  30.15% {
    transform: translateX(196px) translateY(118px) translateX(0px) translateY(0px) translate(12.5px, 38px) rotate(0.262rad) translate(-12.5px, -38px);
  }
  100% {
    transform: translateX(196px) translateY(118px) translateX(0px) translateY(0px) translate(12.5px, 38px) rotate(0.262rad) translate(-12.5px, -38px);
  }
}
#G {
  transform-origin: 0 0;
  animation: kf_G_transform_0 2s linear infinite;
}
@keyframes kf_O_transform_0 {
  0% {
    animation-timing-function: cubic-bezier(0.5, 0, 0.5, 1);
    transform: translateX(143px) translateY(160px) translateX(0px) translateY(0px) translate(12.5px, 38px) rotate(0rad) translate(-12.5px, -38px);
  }
  30.15% {
    transform: translateX(143px) translateY(160px) translateX(0px) translateY(0px) translate(12.5px, 38px) rotate(-0.262rad) translate(-12.5px, -38px);
  }
  100% {
    transform: translateX(143px) translateY(160px) translateX(0px) translateY(0px) translate(12.5px, 38px) rotate(-0.262rad) translate(-12.5px, -38px);
  }
}
#O {
  transform-origin: 0 0;
  animation: kf_O_transform_0 2s linear infinite;
}
@keyframes kf_O_2_transform_0 {
  0% {
    animation-timing-function: cubic-bezier(0.5, 0, 0.5, 1);
    transform: translateX(248px) translateY(118px) translateX(0px) translateY(0px) translate(12.5px, 38px) rotate(0rad) translate(-12.5px, -38px);
  }
  30.15% {
    transform: translateX(248px) translateY(118px) translateX(0px) translateY(0px) translate(12.5px, 38px) rotate(-0.262rad) translate(-12.5px, -38px);
  }
  100% {
    transform: translateX(248px) translateY(118px) translateX(0px) translateY(0px) translate(12.5px, 38px) rotate(-0.262rad) translate(-12.5px, -38px);
  }
}
#O_2 {
  transform-origin: 0 0;
  animation: kf_O_2_transform_0 2s linear infinite;
}
</style>
<g id="Frame_10">
<rect id="Rectangle_20" transform="translate(127 124) rotate(90)" width="101" height="53" fill="white" stroke="black" stroke-width="4"/>
<rect id="Rectangle_23" transform="translate(233 106) rotate(90)" width="101" height="53" fill="white" stroke="black" stroke-width="4"/>
<rect id="Rectangle_22" transform="translate(180 148) rotate(90)" width="101" height="53" fill="white" stroke="black" stroke-width="4"/>
<rect id="Rectangle_24" transform="translate(286 106) rotate(90)" width="101" height="53" fill="white" stroke="black" stroke-width="4"/>
<path id="L" transform="translate(90 136)" d="M2.9366 60V16.341H9.53V54.2976H24.2018V60H2.9366Z" fill="black"/>
<path id="G" transform="translate(196 118)" d="M12.2624 60.4752C11.1932 60.4752 10.1042 60.3564 8.9954 60.1188C7.9262 59.9208 6.9164 59.5446 5.966 58.9902C5.0552 58.4358 4.2434 57.7428 3.5306 56.9112C2.8178 56.0796 2.2436 55.1688 1.808 54.1788C1.3724 53.1888 1.0754 52.1592 0.917001 51.09C0.758601 49.9812 0.679401 48.8922 0.679401 47.823V28.518C0.679401 27.4488 0.758601 26.3796 0.917001 25.3104C1.0754 24.2016 1.3724 23.1522 1.808 22.1622C2.2436 21.1722 2.8178 20.2614 3.5306 19.4298C4.283 18.5586 5.1146 17.8656 6.0254 17.3508C6.9758 16.7964 7.9856 16.4202 9.0548 16.2222C10.1636 15.9846 11.2526 15.8658 12.3218 15.8658C13.3514 15.8658 14.3612 15.9648 15.3512 16.1628C16.3808 16.3212 17.351 16.638 18.2618 17.1132C19.1726 17.5488 19.9844 18.1428 20.6972 18.8952C21.4496 19.608 22.0634 20.4198 22.5386 21.3306C23.0138 22.2018 23.3702 23.1522 23.6078 24.1818C23.8454 25.1718 23.9642 26.1816 23.9642 27.2112V27.5676H17.3708V27.3894C17.3708 26.6766 17.2718 25.9638 17.0738 25.251C16.8758 24.5382 16.559 23.9046 16.1234 23.3502C15.6878 22.7562 15.1136 22.3206 14.4008 22.0434C13.7276 21.7266 13.0346 21.5682 12.3218 21.5682C11.7674 21.5682 11.2328 21.6474 10.718 21.8058C10.2032 21.9642 9.7478 22.2216 9.3518 22.578C8.9558 22.9344 8.6192 23.3502 8.342 23.8254C8.0648 24.3006 7.847 24.7956 7.6886 25.3104C7.5302 25.8252 7.4114 26.3598 7.3322 26.9142C7.2926 27.429 7.2728 27.9636 7.2728 28.518V47.823C7.2728 48.3378 7.2926 48.8724 7.3322 49.4268C7.4114 49.9416 7.5302 50.4564 7.6886 50.9712C7.847 51.486 8.045 51.981 8.2826 52.4562C8.5598 52.9314 8.8964 53.3472 9.2924 53.7036C9.6884 54.06 10.1438 54.3372 10.6586 54.5352C11.1734 54.6936 11.708 54.7728 12.2624 54.7728C12.8168 54.7728 13.3514 54.6936 13.8662 54.5352C14.381 54.3372 14.8364 54.06 15.2324 53.7036C15.6284 53.3472 15.9452 52.9314 16.1828 52.4562C16.46 51.981 16.6778 51.486 16.8362 50.9712C16.9946 50.4564 17.0936 49.9416 17.1332 49.4268C17.2124 48.8724 17.252 48.3378 17.252 47.823V41.586H12.5V35.8836H23.8454V47.823C23.8454 48.8922 23.7662 49.9812 23.6078 51.09C23.4494 52.1592 23.1524 53.1888 22.7168 54.1788C22.2812 55.1688 21.707 56.0796 20.9942 56.9112C20.2814 57.7428 19.4498 58.4358 18.4994 58.9902C17.5886 59.5446 16.5788 59.9208 15.47 60.1188C14.4008 60.3564 13.3316 60.4752 12.2624 60.4752Z" fill="black"/>
<path id="O" transform="translate(143 160)" d="M12.5 60.4752C11.3912 60.4752 10.2824 60.3564 9.1736 60.1188C8.1044 59.9208 7.0946 59.5644 6.1442 59.0496C5.1938 58.4952 4.3424 57.8022 3.59 56.9706C2.8772 56.139 2.303 55.2282 1.8674 54.2382C1.4318 53.2086 1.115 52.1592 0.917001 51.09C0.758601 50.0208 0.679401 48.9318 0.679401 47.823V28.518C0.679401 27.4092 0.758601 26.3202 0.917001 25.251C1.115 24.1818 1.4318 23.1522 1.8674 22.1622C2.303 21.1326 2.8772 20.202 3.59 19.3704C4.3424 18.5388 5.1938 17.8656 6.1442 17.3508C7.0946 16.7964 8.1044 16.4202 9.1736 16.2222C10.2824 15.9846 11.3912 15.8658 12.5 15.8658C13.6088 15.8658 14.6978 15.9846 15.767 16.2222C16.8758 16.4202 17.9054 16.7964 18.8558 17.3508C19.8062 17.8656 20.6378 18.5388 21.3506 19.3704C22.103 20.202 22.697 21.1326 23.1326 22.1622C23.5682 23.1522 23.8652 24.1818 24.0236 25.251C24.2216 26.3202 24.3206 27.4092 24.3206 28.518V47.823C24.3206 48.9318 24.2216 50.0208 24.0236 51.09C23.8652 52.1592 23.5682 53.2086 23.1326 54.2382C22.697 55.2282 22.103 56.139 21.3506 56.9706C20.6378 57.8022 19.8062 58.4952 18.8558 59.0496C17.9054 59.5644 16.8758 59.9208 15.767 60.1188C14.6978 60.3564 13.6088 60.4752 12.5 60.4752ZM12.5 54.7728C13.0544 54.7728 13.589 54.6936 14.1038 54.5352C14.6582 54.3768 15.1334 54.1194 15.5294 53.763C15.965 53.4066 16.3214 52.9908 16.5986 52.5156C16.8758 52.0404 17.0936 51.5454 17.252 51.0306C17.45 50.5158 17.5688 50.001 17.6084 49.4862C17.6876 48.9318 17.7272 48.3774 17.7272 47.823V28.518C17.7272 27.9636 17.6876 27.429 17.6084 26.9142C17.5688 26.3598 17.45 25.8252 17.252 25.3104C17.0936 24.7956 16.8758 24.3006 16.5986 23.8254C16.3214 23.3502 15.965 22.9344 15.5294 22.578C15.1334 22.2216 14.6582 21.9642 14.1038 21.8058C13.589 21.6474 13.0544 21.5682 12.5 21.5682C11.9456 21.5682 11.3912 21.6474 10.8368 21.8058C10.322 21.9642 9.8468 22.2216 9.4112 22.578C9.0152 22.9344 8.6786 23.3502 8.4014 23.8254C8.1242 24.3006 7.8866 24.7956 7.6886 25.3104C7.5302 25.8252 7.4114 26.3598 7.3322 26.9142C7.2926 27.429 7.2728 27.9636 7.2728 28.518V47.823C7.2728 48.3774 7.2926 48.9318 7.3322 49.4862C7.4114 50.001 7.5302 50.5158 7.6886 51.0306C7.8866 51.5454 8.1242 52.0404 8.4014 52.5156C8.6786 52.9908 9.0152 53.4066 9.4112 53.763C9.8468 54.1194 10.322 54.3768 10.8368 54.5352C11.3912 54.6936 11.9456 54.7728 12.5 54.7728Z" fill="black"/>
<path id="folio" transform="translate(180 208)" d="M19.9517 37V23.212H16.1357V19.756H19.9517V16.444C19.9517 15.94 19.9877 15.436 20.0597 14.932C20.1317 14.404 20.2637 13.9 20.4557 13.42C20.6477 12.94 20.8997 12.496 21.2117 12.088C21.5237 11.656 21.8957 11.308 22.3277 11.044C22.7597 10.756 23.2277 10.552 23.7317 10.432C24.2597 10.312 24.7757 10.252 25.2797 10.252C25.9997 10.252 26.7077 10.36 27.4037 10.576C28.0997 10.792 28.6877 11.152 29.1677 11.656C29.6717 12.16 30.0437 12.76 30.2837 13.456C30.5237 14.152 30.6437 14.848 30.6437 15.544V15.652H26.6117V15.616C26.6117 15.4 26.5877 15.184 26.5397 14.968C26.5157 14.752 26.4437 14.548 26.3237 14.356C26.2277 14.164 26.0837 14.008 25.8917 13.888C25.7237 13.768 25.5197 13.708 25.2797 13.708C25.0157 13.708 24.7877 13.828 24.5957 14.068C24.4037 14.284 24.2597 14.524 24.1637 14.788C24.0917 15.052 24.0317 15.328 23.9837 15.616C23.9597 15.88 23.9477 16.156 23.9477 16.444V19.756H29.2037V23.212H23.9477V37H19.9517ZM41.0117 37.288C40.3637 37.288 39.7037 37.228 39.0317 37.108C38.3837 36.988 37.7717 36.772 37.1957 36.46C36.6197 36.148 36.1037 35.752 35.6477 35.272C35.2157 34.768 34.8557 34.228 34.5677 33.652C34.3037 33.052 34.1117 32.428 33.9917 31.78C33.8957 31.108 33.8477 30.448 33.8477 29.8V25.48C33.8477 24.832 33.8957 24.184 33.9917 23.536C34.1117 22.864 34.3037 22.24 34.5677 21.664C34.8557 21.064 35.2157 20.524 35.6477 20.044C36.1037 19.54 36.6197 19.132 37.1957 18.82C37.7717 18.508 38.3837 18.292 39.0317 18.172C39.7037 18.052 40.3637 17.992 41.0117 17.992C41.6597 17.992 42.3077 18.052 42.9557 18.172C43.6277 18.292 44.2517 18.508 44.8277 18.82C45.4037 19.132 45.9077 19.54 46.3397 20.044C46.7957 20.524 47.1557 21.064 47.4197 21.664C47.7077 22.24 47.8997 22.864 47.9957 23.536C48.1157 24.184 48.1757 24.832 48.1757 25.48V29.8C48.1757 30.448 48.1157 31.108 47.9957 31.78C47.8997 32.428 47.7077 33.052 47.4197 33.652C47.1557 34.228 46.7957 34.768 46.3397 35.272C45.9077 35.752 45.4037 36.148 44.8277 36.46C44.2517 36.772 43.6277 36.988 42.9557 37.108C42.3077 37.228 41.6597 37.288 41.0117 37.288ZM41.0117 33.832C41.4917 33.832 41.9477 33.724 42.3797 33.508C42.8357 33.292 43.1957 32.98 43.4597 32.572C43.7477 32.164 43.9397 31.72 44.0357 31.24C44.1317 30.76 44.1797 30.28 44.1797 29.8V25.48C44.1797 25 44.1317 24.52 44.0357 24.04C43.9397 23.56 43.7477 23.116 43.4597 22.708C43.1957 22.3 42.8357 21.988 42.3797 21.772C41.9477 21.556 41.4917 21.448 41.0117 21.448C40.5317 21.448 40.0637 21.556 39.6077 21.772C39.1757 21.988 38.8157 22.3 38.5277 22.708C38.2637 23.116 38.0837 23.56 37.9877 24.04C37.8917 24.52 37.8437 25 37.8437 25.48V29.8C37.8437 30.28 37.8917 30.76 37.9877 31.24C38.0837 31.72 38.2637 32.164 38.5277 32.572C38.8157 32.98 39.1757 33.292 39.6077 33.508C40.0637 33.724 40.5317 33.832 41.0117 33.832ZM60.9557 37H59.5157C59.0357 37 58.5557 36.964 58.0757 36.892C57.5957 36.82 57.1397 36.688 56.7077 36.496C56.2757 36.28 55.8677 36.016 55.4837 35.704C55.1237 35.368 54.8237 34.996 54.5837 34.588C54.3677 34.156 54.2117 33.7 54.1157 33.22C54.0437 32.74 54.0077 32.26 54.0077 31.78V13.996H51.8117V10.54H58.0037V31.78C58.0037 31.996 58.0277 32.212 58.0757 32.428C58.1237 32.644 58.2197 32.848 58.3637 33.04C58.5077 33.208 58.6757 33.34 58.8677 33.436C59.0837 33.508 59.2997 33.544 59.5157 33.544H60.9557V37ZM72.944 37H71.504C71.024 37 70.544 36.964 70.064 36.892C69.584 36.82 69.128 36.688 68.696 36.496C68.264 36.28 67.856 36.016 67.472 35.704C67.112 35.368 66.812 34.996 66.572 34.588C66.356 34.156 66.2 33.7 66.104 33.22C66.032 32.74 65.996 32.26 65.996 31.78V21.736H63.8V18.28H69.992V31.78C69.992 31.996 70.016 32.212 70.064 32.428C70.112 32.644 70.208 32.848 70.352 33.04C70.496 33.208 70.664 33.34 70.856 33.436C71.072 33.508 71.288 33.544 71.504 33.544H72.944V37ZM68.012 15.76C67.628 15.76 67.244 15.7 66.86 15.58C66.476 15.46 66.14 15.268 65.852 15.004C65.588 14.74 65.396 14.416 65.276 14.032C65.18 13.648 65.132 13.264 65.132 12.88C65.132 12.496 65.18 12.112 65.276 11.728C65.396 11.344 65.588 11.02 65.852 10.756C66.14 10.492 66.476 10.3 66.86 10.18C67.244 10.06 67.628 10 68.012 10C68.396 10 68.78 10.06 69.164 10.18C69.548 10.3 69.872 10.492 70.136 10.756C70.4 11.02 70.592 11.344 70.712 11.728C70.832 12.112 70.892 12.496 70.892 12.88C70.892 13.264 70.832 13.648 70.712 14.032C70.592 14.416 70.4 14.74 70.136 15.004C69.872 15.268 69.548 15.46 69.164 15.58C68.78 15.7 68.396 15.76 68.012 15.76ZM82.9883 37.288C82.3403 37.288 81.6803 37.228 81.0083 37.108C80.3603 36.988 79.7483 36.772 79.1723 36.46C78.5963 36.148 78.0803 35.752 77.6243 35.272C77.1923 34.768 76.8323 34.228 76.5443 33.652C76.2803 33.052 76.0883 32.428 75.9683 31.78C75.8723 31.108 75.8243 30.448 75.8243 29.8V25.48C75.8243 24.832 75.8723 24.184 75.9683 23.536C76.0883 22.864 76.2803 22.24 76.5443 21.664C76.8323 21.064 77.1923 20.524 77.6243 20.044C78.0803 19.54 78.5963 19.132 79.1723 18.82C79.7483 18.508 80.3603 18.292 81.0083 18.172C81.6803 18.052 82.3403 17.992 82.9883 17.992C83.6363 17.992 84.2843 18.052 84.9323 18.172C85.6043 18.292 86.2283 18.508 86.8043 18.82C87.3803 19.132 87.8843 19.54 88.3163 20.044C88.7723 20.524 89.1323 21.064 89.3963 21.664C89.6843 22.24 89.8763 22.864 89.9723 23.536C90.0923 24.184 90.1523 24.832 90.1523 25.48V29.8C90.1523 30.448 90.0923 31.108 89.9723 31.78C89.8763 32.428 89.6843 33.052 89.3963 33.652C89.1323 34.228 88.7723 34.768 88.3163 35.272C87.8843 35.752 87.3803 36.148 86.8043 36.46C86.2283 36.772 85.6043 36.988 84.9323 37.108C84.2843 37.228 83.6363 37.288 82.9883 37.288ZM82.9883 33.832C83.4683 33.832 83.9243 33.724 84.3563 33.508C84.8123 33.292 85.1723 32.98 85.4363 32.572C85.7243 32.164 85.9163 31.72 86.0123 31.24C86.1083 30.76 86.1563 30.28 86.1563 29.8V25.48C86.1563 25 86.1083 24.52 86.0123 24.04C85.9163 23.56 85.7243 23.116 85.4363 22.708C85.1723 22.3 84.8123 21.988 84.3563 21.772C83.9243 21.556 83.4683 21.448 82.9883 21.448C82.5083 21.448 82.0403 21.556 81.5843 21.772C81.1523 21.988 80.7923 22.3 80.5043 22.708C80.2403 23.116 80.0603 23.56 79.9643 24.04C79.8683 24.52 79.8203 25 79.8203 25.48V29.8C79.8203 30.28 79.8683 30.76 79.9643 31.24C80.0603 31.72 80.2403 32.164 80.5043 32.572C80.7923 32.98 81.1523 33.292 81.5843 33.508C82.0403 33.724 82.5083 33.832 82.9883 33.832Z" fill="black"/>
<path id="O_2" transform="translate(248 118)" d="M12.5 60.4752C11.3912 60.4752 10.2824 60.3564 9.1736 60.1188C8.1044 59.9208 7.0946 59.5644 6.1442 59.0496C5.1938 58.4952 4.3424 57.8022 3.59 56.9706C2.8772 56.139 2.303 55.2282 1.8674 54.2382C1.4318 53.2086 1.115 52.1592 0.917001 51.09C0.758601 50.0208 0.679401 48.9318 0.679401 47.823V28.518C0.679401 27.4092 0.758601 26.3202 0.917001 25.251C1.115 24.1818 1.4318 23.1522 1.8674 22.1622C2.303 21.1326 2.8772 20.202 3.59 19.3704C4.3424 18.5388 5.1938 17.8656 6.1442 17.3508C7.0946 16.7964 8.1044 16.4202 9.1736 16.2222C10.2824 15.9846 11.3912 15.8658 12.5 15.8658C13.6088 15.8658 14.6978 15.9846 15.767 16.2222C16.8758 16.4202 17.9054 16.7964 18.8558 17.3508C19.8062 17.8656 20.6378 18.5388 21.3506 19.3704C22.103 20.202 22.697 21.1326 23.1326 22.1622C23.5682 23.1522 23.8652 24.1818 24.0236 25.251C24.2216 26.3202 24.3206 27.4092 24.3206 28.518V47.823C24.3206 48.9318 24.2216 50.0208 24.0236 51.09C23.8652 52.1592 23.5682 53.2086 23.1326 54.2382C22.697 55.2282 22.103 56.139 21.3506 56.9706C20.6378 57.8022 19.8062 58.4952 18.8558 59.0496C17.9054 59.5644 16.8758 59.9208 15.767 60.1188C14.6978 60.3564 13.6088 60.4752 12.5 60.4752ZM12.5 54.7728C13.0544 54.7728 13.589 54.6936 14.1038 54.5352C14.6582 54.3768 15.1334 54.1194 15.5294 53.763C15.965 53.4066 16.3214 52.9908 16.5986 52.5156C16.8758 52.0404 17.0936 51.5454 17.252 51.0306C17.45 50.5158 17.5688 50.001 17.6084 49.4862C17.6876 48.9318 17.7272 48.3774 17.7272 47.823V28.518C17.7272 27.9636 17.6876 27.429 17.6084 26.9142C17.5688 26.3598 17.45 25.8252 17.252 25.3104C17.0936 24.7956 16.8758 24.3006 16.5986 23.8254C16.3214 23.3502 15.965 22.9344 15.5294 22.578C15.1334 22.2216 14.6582 21.9642 14.1038 21.8058C13.589 21.6474 13.0544 21.5682 12.5 21.5682C11.9456 21.5682 11.3912 21.6474 10.8368 21.8058C10.322 21.9642 9.8468 22.2216 9.4112 22.578C9.0152 22.9344 8.6786 23.3502 8.4014 23.8254C8.1242 24.3006 7.8866 24.7956 7.6886 25.3104C7.5302 25.8252 7.4114 26.3598 7.3322 26.9142C7.2926 27.429 7.2728 27.9636 7.2728 28.518V47.823C7.2728 48.3774 7.2926 48.9318 7.3322 49.4862C7.4114 50.001 7.5302 50.5158 7.6886 51.0306C7.8866 51.5454 8.1242 52.0404 8.4014 52.5156C8.6786 52.9908 9.0152 53.4066 9.4112 53.763C9.8468 54.1194 10.322 54.3768 10.8368 54.5352C11.3912 54.6936 11.9456 54.7728 12.5 54.7728Z" fill="black"/>
</g>
</svg>
