<svg width="360" height="360" viewBox="0 0 360 360" fill="none" xmlns="http://www.w3.org/2000/svg">
<style>
svg { overflow: visible; }
@keyframes kf_Rectangle_25_transform_0 {
  0% {
    animation-timing-function: cubic-bezier(0.5, 0, 0.5, 1);
    transform: translateX(256px) translateY(77px) translate(-76.5px, 102.5px) rotate(0rad) translate(76.5px, -102.5px) rotate(1.571rad) scaleX(1) scaleY(1) skewX(0rad);
  }
  30% {
    transform: translateX(256px) translateY(77px) translate(-76.5px, 102.5px) rotate(0.873rad) translate(76.5px, -102.5px) rotate(1.571rad) scaleX(1) scaleY(1) skewX(0rad);
  }
  100% {
    transform: translateX(256px) translateY(77px) translate(-76.5px, 102.5px) rotate(0.873rad) translate(76.5px, -102.5px) rotate(1.571rad) scaleX(1) scaleY(1) skewX(0rad);
  }
}
#Rectangle_25 {
  transform-origin: 0 0;
  animation: kf_Rectangle_25_transform_0 2s linear infinite;
}
@keyframes kf_Rectangle_29_transform_0 {
  0% {
    animation-timing-function: cubic-bezier(0.5, 0, 0.5, 1);
    transform: translateX(256px) translateY(77px) translate(-76.5px, 102.5px) rotate(0rad) translate(76.5px, -102.5px) rotate(1.571rad) scaleX(1) scaleY(1) skewX(0rad);
  }
  30% {
    transform: translateX(256px) translateY(77px) translate(-76.5px, 102.5px) rotate(0.436rad) translate(76.5px, -102.5px) rotate(1.571rad) scaleX(1) scaleY(1) skewX(0rad);
  }
  100% {
    transform: translateX(256px) translateY(77px) translate(-76.5px, 102.5px) rotate(0.436rad) translate(76.5px, -102.5px) rotate(1.571rad) scaleX(1) scaleY(1) skewX(0rad);
  }
}
#Rectangle_29 {
  transform-origin: 0 0;
  animation: kf_Rectangle_29_transform_0 2s linear infinite;
}
@keyframes kf_Rectangle_28_transform_0 {
  0% {
    animation-timing-function: cubic-bezier(0.5, 0, 0.5, 1);
    transform: translateX(256px) translateY(77px) translate(-76.5px, 102.5px) rotate(0rad) translate(76.5px, -102.5px) rotate(1.571rad) scaleX(1) scaleY(1) skewX(0rad);
  }
  30% {
    transform: translateX(256px) translateY(77px) translate(-76.5px, 102.5px) rotate(-0.436rad) translate(76.5px, -102.5px) rotate(1.571rad) scaleX(1) scaleY(1) skewX(0rad);
  }
  100% {
    transform: translateX(256px) translateY(77px) translate(-76.5px, 102.5px) rotate(-0.436rad) translate(76.5px, -102.5px) rotate(1.571rad) scaleX(1) scaleY(1) skewX(0rad);
  }
}
#Rectangle_28 {
  transform-origin: 0 0;
  animation: kf_Rectangle_28_transform_0 2s linear infinite;
}
@keyframes kf_posters__events_transform_0 {
  0% {
    animation-timing-function: cubic-bezier(0.5, 0, 0.5, 1);
    transform: translateX(109px) translateY(272px) translate(39px, -83px) rotate(0rad) translate(-39px, 83px) rotate(-1.571rad) scaleX(1) scaleY(1) skewX(0rad);
  }
  30% {
    transform: translateX(109px) translateY(272px) translate(39px, -83px) rotate(-0.436rad) translate(-39px, 83px) rotate(-1.571rad) scaleX(1) scaleY(1) skewX(0rad);
  }
  100% {
    transform: translateX(109px) translateY(272px) translate(39px, -83px) rotate(-0.436rad) translate(-39px, 83px) rotate(-1.571rad) scaleX(1) scaleY(1) skewX(0rad);
  }
}
#posters__events {
  transform-origin: 0 0;
  animation: kf_posters__events_transform_0 2s linear infinite;
}
</style>
<g id="Frame_11">
<rect id="Rectangle_25" transform="translate(256 77) rotate(90)" width="205" height="153" fill="white" stroke="black" stroke-width="4"/>
<rect id="Rectangle_29" transform="translate(256 77) rotate(90)" width="205" height="153" fill="white" stroke="black" stroke-width="4"/>
<rect id="Rectangle_30" transform="translate(256 77) rotate(90)" width="205" height="153" fill="white" stroke="black" stroke-width="4"/>
<rect id="Rectangle_28" transform="translate(256 77) rotate(90)" width="205" height="153" fill="white" stroke="black" stroke-width="4"/>
<path id="posters__events" transform="translate(109 272) rotate(-90)" d="M4.32 31V7.78C6.12 7.588 8.016 7.492 10.008 7.492C12.024 7.492 13.728 8.032 15.12 9.112C16.512 10.168 17.208 11.776 17.208 13.936C17.208 16.096 16.26 17.872 14.364 19.264C12.468 20.632 10.224 21.316 7.632 21.316C7.512 21.316 7.38 21.316 7.236 21.316V20.164C7.332 20.164 7.416 20.164 7.488 20.164C9.624 20.164 11.484 19.6 13.068 18.472C14.652 17.344 15.444 15.88 15.444 14.08C15.444 12.28 14.88 10.972 13.752 10.156C12.648 9.34 11.184 8.932 9.36 8.932C8.4 8.932 7.272 8.98 5.976 9.076V31H4.32ZM33.6715 31.36C30.3355 31.36 27.5395 30.196 25.2835 27.868C23.0275 25.54 21.8995 22.696 21.8995 19.336C21.8995 15.952 23.0275 13.096 25.2835 10.768C27.5395 8.44 30.3355 7.276 33.6715 7.276C37.0075 7.276 39.8035 8.44 42.0595 10.768C44.3155 13.096 45.4435 15.952 45.4435 19.336C45.4435 22.696 44.3155 25.54 42.0595 27.868C39.8035 30.196 37.0075 31.36 33.6715 31.36ZM33.6715 8.752C30.7915 8.752 28.3915 9.772 26.4715 11.812C24.5755 13.852 23.6275 16.36 23.6275 19.336C23.6275 22.288 24.5755 24.784 26.4715 26.824C28.3915 28.84 30.7915 29.848 33.6715 29.848C36.5755 29.848 38.9755 28.84 40.8715 26.824C42.7675 24.784 43.7155 22.288 43.7155 19.336C43.7155 16.36 42.7675 13.852 40.8715 11.812C38.9755 9.772 36.5755 8.752 33.6715 8.752ZM57.3758 8.644C56.0798 8.644 55.0238 8.956 54.2078 9.58C53.3918 10.204 52.9838 11.08 52.9838 12.208C52.9838 13.504 53.5238 14.668 54.6038 15.7C55.3718 16.444 56.3558 17.236 57.5558 18.076C58.7798 18.892 59.6198 19.48 60.0758 19.84C60.5318 20.2 61.0838 20.692 61.7318 21.316C62.9078 22.492 63.4958 23.848 63.4958 25.384C63.4958 27.376 62.8238 28.888 61.4798 29.92C60.1598 30.928 58.2998 31.432 55.8998 31.432C53.5238 31.432 51.5318 30.808 49.9238 29.56L50.7878 28.3C52.4198 29.404 54.1478 29.956 55.9718 29.956C57.7958 29.956 59.2118 29.572 60.2198 28.804C61.2518 28.036 61.7678 26.956 61.7678 25.564C61.7678 24.364 61.2518 23.26 60.2198 22.252C59.4998 21.532 58.5278 20.752 57.3038 19.912C56.1038 19.072 55.2638 18.472 54.7838 18.112C54.3038 17.728 53.7398 17.224 53.0918 16.6C51.8678 15.376 51.2558 13.96 51.2558 12.352C51.2558 10.744 51.8198 9.484 52.9478 8.572C54.0998 7.66 55.6838 7.204 57.6998 7.204C59.7158 7.204 61.5278 7.6 63.1358 8.392L62.5238 9.724C61.0358 9.004 59.3198 8.644 57.3758 8.644ZM74.3085 9.112H66.3885V7.636H83.8485V9.112H75.9285V31H74.3085V9.112ZM88.7302 31V7.636H99.6382V9.076H90.3862V17.572H98.7382V18.976H90.3862V29.488H99.9982V31H88.7302ZM106.625 31V7.744C108.689 7.576 110.441 7.492 111.881 7.492C114.089 7.492 115.913 8.068 117.353 9.22C118.793 10.348 119.513 11.968 119.513 14.08C119.513 15.496 119.105 16.804 118.289 18.004C117.473 19.204 116.549 20.176 115.517 20.92C118.373 24.712 120.137 26.98 120.809 27.724C122.177 29.14 123.665 29.944 125.273 30.136L125.237 31.252C123.893 31.228 122.801 31.036 121.961 30.676C121.121 30.292 120.281 29.656 119.441 28.768C118.625 27.88 116.813 25.492 114.005 21.604C112.061 21.604 110.153 21.544 108.281 21.424V31H106.625ZM113.105 20.236C114.041 20.236 115.049 19.612 116.129 18.364C117.209 17.116 117.749 15.664 117.749 14.008C117.749 12.352 117.185 11.092 116.057 10.228C114.929 9.364 113.465 8.932 111.665 8.932C110.705 8.932 109.577 8.98 108.281 9.076V20.056C110.009 20.176 111.617 20.236 113.105 20.236ZM133.243 8.644C131.947 8.644 130.891 8.956 130.075 9.58C129.259 10.204 128.851 11.08 128.851 12.208C128.851 13.504 129.391 14.668 130.471 15.7C131.239 16.444 132.223 17.236 133.423 18.076C134.647 18.892 135.487 19.48 135.943 19.84C136.399 20.2 136.951 20.692 137.599 21.316C138.775 22.492 139.363 23.848 139.363 25.384C139.363 27.376 138.691 28.888 137.347 29.92C136.027 30.928 134.167 31.432 131.767 31.432C129.391 31.432 127.399 30.808 125.791 29.56L126.655 28.3C128.287 29.404 130.015 29.956 131.839 29.956C133.663 29.956 135.079 29.572 136.087 28.804C137.119 28.036 137.635 26.956 137.635 25.564C137.635 24.364 137.119 23.26 136.087 22.252C135.367 21.532 134.395 20.752 133.171 19.912C131.971 19.072 131.131 18.472 130.651 18.112C130.171 17.728 129.607 17.224 128.959 16.6C127.735 15.376 127.123 13.96 127.123 12.352C127.123 10.744 127.687 9.484 128.815 8.572C129.967 7.66 131.551 7.204 133.567 7.204C135.583 7.204 137.395 7.6 139.003 8.392L138.391 9.724C136.903 9.004 135.187 8.644 133.243 8.644ZM161.804 21.1H163.208C163.16 23.332 162.524 25.288 161.3 26.968L165.044 31H162.884L160.256 28.156C159.104 29.164 157.784 29.956 156.296 30.532C154.808 31.108 153.368 31.396 151.976 31.396C149.648 31.396 147.824 30.916 146.504 29.956C145.208 28.972 144.56 27.604 144.56 25.852C144.56 24.1 145.076 22.624 146.108 21.424C147.14 20.2 148.592 18.952 150.464 17.68C147.608 14.608 146.18 12.244 146.18 10.588C146.18 8.932 146.72 7.636 147.8 6.7C148.88 5.74 150.452 5.26 152.516 5.26C154.58 5.26 156.128 5.752 157.16 6.736C158.192 7.696 158.708 8.86 158.708 10.228C158.708 11.572 158.192 12.844 157.16 14.044C156.128 15.244 154.7 16.552 152.876 17.968L160.328 25.924C160.736 25.444 161.084 24.712 161.372 23.728C161.66 22.744 161.804 21.868 161.804 21.1ZM152.192 29.992C154.616 29.992 156.956 29.02 159.212 27.076L151.544 18.868C147.992 21.028 146.216 23.188 146.216 25.348C146.216 26.812 146.732 27.952 147.764 28.768C148.796 29.584 150.272 29.992 152.192 29.992ZM157.088 10.516C157.088 9.316 156.692 8.38 155.9 7.708C155.132 7.036 154.04 6.7 152.624 6.7C149.408 6.7 147.8 7.972 147.8 10.516C147.8 11.188 148.004 11.92 148.412 12.712C148.844 13.48 149.3 14.14 149.78 14.692C150.26 15.22 150.932 15.916 151.796 16.78C155.324 14.452 157.088 12.364 157.088 10.516ZM4.32 70V46.636H15.228V48.076H5.976V56.572H14.328V57.976H5.976V68.488H15.588V70H4.32ZM29.8465 65.104L37.6585 46.636H39.3865L29.3425 70.144H28.3705L18.3265 46.636H20.1265L28.9465 67.408C29.0665 67.048 29.3665 66.28 29.8465 65.104ZM44.152 70V46.636H55.06V48.076H45.808V56.572H54.16V57.976H45.808V68.488H55.42V70H44.152ZM62.0466 70V46.492H62.8386L78.1746 64.132C78.7266 64.756 79.2306 65.38 79.6866 66.004C80.1666 66.604 80.4186 66.916 80.4426 66.94C80.3946 66.364 80.3706 65.236 80.3706 63.556V46.636H82.0266V70.144H81.2346L65.6106 52.216L63.6306 49.804C63.6786 50.284 63.7026 51.412 63.7026 53.188V70H62.0466ZM94.8398 48.112H86.9198V46.636H104.38V48.112H96.4598V70H94.8398V48.112ZM113.977 47.644C112.681 47.644 111.625 47.956 110.809 48.58C109.993 49.204 109.585 50.08 109.585 51.208C109.585 52.504 110.125 53.668 111.205 54.7C111.973 55.444 112.957 56.236 114.157 57.076C115.381 57.892 116.221 58.48 116.677 58.84C117.133 59.2 117.685 59.692 118.333 60.316C119.509 61.492 120.097 62.848 120.097 64.384C120.097 66.376 119.425 67.888 118.081 68.92C116.761 69.928 114.901 70.432 112.501 70.432C110.125 70.432 108.133 69.808 106.525 68.56L107.389 67.3C109.021 68.404 110.749 68.956 112.573 68.956C114.397 68.956 115.813 68.572 116.821 67.804C117.853 67.036 118.369 65.956 118.369 64.564C118.369 63.364 117.853 62.26 116.821 61.252C116.101 60.532 115.129 59.752 113.905 58.912C112.705 58.072 111.865 57.472 111.385 57.112C110.905 56.728 110.341 56.224 109.693 55.6C108.469 54.376 107.857 52.96 107.857 51.352C107.857 49.744 108.421 48.484 109.549 47.572C110.701 46.66 112.285 46.204 114.301 46.204C116.317 46.204 118.129 46.6 119.737 47.392L119.125 48.724C117.637 48.004 115.921 47.644 113.977 47.644Z" fill="black"/>
</g>
</svg>
